<svg fill="none" viewBox="0 0 714 457" xmlns="http://www.w3.org/2000/svg"><path d="M468.001 457c-7.844 0-15.717-.405-23.6-1.222l-76.835-19.872c-81.303-35.49-365.22 40.62-321.95-90.529.106-.325.217-.651.328-.978 8.9-26.191-19.903-45.921-31.845-69.271C3.47 254.348-.974 228.93.177 205.64c1.57-31.801 15.252-64.272 40.588-88.27 33.603-31.828 83.511-45.317 131.62-45.317 8.415 0 16.772.412 24.979 1.212 17.81 1.733 35.59 5.04 53.512 5.04 5.316 0 10.643-.29 15.991-.998 34.086-4.525 63.269-25.11 93.722-40.664C394.34 19.41 432.504 7.783 470.087 7.28h5.204a175.91 175.91 0 0120.379 1.457c51.612 6.77 95.338 40.054 102.732 86.798 3.351 21.18-17.774 59.872-9.479 79.684 8.415 20.093 65.435 80.05 66.533 127.808 1.094 47.58-10.551 62.99-26.844 88.03a228.67 228.67 0 01-160.611 65.942V457z" fill="#BAD5F5"/><path d="M574.749 211.945c0 105.648-85.548 191.292-191.07 191.292-105.525 0-191.07-85.643-191.07-191.292 0-105.648 85.545-191.296 191.07-191.296 105.522 0 191.07 85.648 191.07 191.296z" fill="#65A2EF"/><path d="M523.13 257.314c0 75.444-61.089 136.601-136.441 136.601-75.355 0-136.442-61.158-136.442-136.601 0-75.442 61.087-136.602 136.442-136.602 75.352 0 136.441 61.16 136.441 136.602z" fill="#9ECAFF"/><path d="M541.437 403.8H226.22c-4.551 0-8.24-3.693-8.24-8.25 0-4.555 3.689-8.251 8.24-8.251h315.217c4.549 0 8.241 3.695 8.241 8.251 0 4.557-3.692 8.25-8.241 8.25z" fill="#FF9F40"/><path d="M541.436 401.936H226.218a6.374 6.374 0 01-5.296-2.833c.091-.706.27-1.385.528-2.027.67.177 1.372.272 2.098.272h315.217c3.46 0 6.42-2.14 7.634-5.17.185.048.371.105.55.165.55.943.865 2.039.865 3.207 0 3.521-2.861 6.386-6.378 6.386z" fill="#C36F50"/><path d="M221.45 397.076a8.135 8.135 0 01-1.54-.579 6.293 6.293 0 01-.07-.947c0-3.522 2.862-6.386 6.378-6.386h315.217a6.365 6.365 0 015.122 2.588 9.498 9.498 0 01-.159.426 8.18 8.18 0 00-2.091-.268H229.096a8.244 8.244 0 00-5.831 2.413 8.303 8.303 0 00-1.815 2.753z" fill="#FFD4A9"/><path d="M220.922 399.103a6.333 6.333 0 01-1.011-2.606 8.067 8.067 0 001.54.579 8.263 8.263 0 00-.529 2.027zm326.027-6.76a8.108 8.108 0 00-.549-.164c.056-.141.109-.283.158-.427.141.189.27.386.391.591z" fill="#E4BEB0"/><path d="M226.219 389.165c-3.516 0-6.378 2.864-6.378 6.385 0 3.522 2.862 6.386 6.378 6.386h315.217c3.518 0 6.378-2.864 6.378-6.386 0-3.521-2.86-6.385-6.378-6.385H226.219zm315.217 16.5H226.219c-5.571 0-10.103-4.538-10.103-10.115s4.532-10.114 10.103-10.114h315.217c5.571 0 10.1 4.537 10.1 10.114 0 5.577-4.529 10.115-10.1 10.115z" fill="#2C2F3D"/><path d="M524.317 350.903v19.652c0 .34-.012.689-.03 1.028-.028.443-.077.896-.133 1.33h-.008a16.517 16.517 0 01-3.422 7.981 5.287 5.287 0 01-.32.416 16.677 16.677 0 01-12.816 5.989c-9.234 0-16.723-7.498-16.723-16.744v-19.652a2.754 2.754 0 012.75-2.754h27.948a2.758 2.758 0 012.753 2.754h.001z" fill="#F7C414"/><path d="M493.616 348.488a2.416 2.416 0 00-2.413 2.415v19.652c0 9.046 7.349 16.406 16.386 16.406 4.86 0 9.436-2.139 12.558-5.869.103-.124.209-.254.296-.386a16.273 16.273 0 003.37-7.84l.042-.291c.042-.336.072-.677.094-1.013.019-.331.027-.675.027-1.007v-19.652a2.416 2.416 0 00-2.412-2.415h-27.948zm13.973 39.152c-9.409 0-17.065-7.666-17.065-17.085v-19.652a3.097 3.097 0 013.092-3.093h27.947a3.097 3.097 0 013.092 3.093v19.652c0 .346-.012.7-.03 1.047-.028.454-.076.914-.133 1.354l-.053.296a16.92 16.92 0 01-3.449 7.853 4.021 4.021 0 01-.327.424 17.008 17.008 0 01-13.074 6.111z" fill="#390075"/><path d="M503.769 387.208a16.54 16.54 0 01-1.701-.266c.137-.027.266-.057.399-.088.429.134.861.253 1.302.354z" fill="#390075"/><path d="M509.448 386.842a16.678 16.678 0 01-3.461-1.25 16.841 16.841 0 005.46-4.282 4.46 4.46 0 00.319-.416 16.555 16.555 0 003.422-7.981h.008c.056-.434.102-.887.133-1.33.018-.339.03-.688.03-1.028v-19.652a2.756 2.756 0 00-1.435-2.415h6.917a2.752 2.752 0 011.43 2.415v19.652c0 .34-.008.689-.026 1.028-.027.443-.076.896-.133 1.33h-.008a16.507 16.507 0 01-3.422 7.981 5.26 5.26 0 01-.318.416 16.722 16.722 0 01-8.916 5.532z" fill="#BE8931"/><path d="M505.55 387.299c-.6 0-1.192-.03-1.779-.091-.441-.102-.873-.22-1.302-.355.213-.051.425-.106.637-.163 1.112.311 2.27.509 3.464.579-.337.021-.678.03-1.02.03zm15.293-38.811h-6.916a2.735 2.735 0 00-1.32-.339h6.917c.478 0 .928.124 1.319.339z" fill="#390075"/><path d="M511.425 342.43c.117-.376.095-.778.105-1.169 0-.392-.014-.786-.03-1.18a80.882 80.882 0 00-.144-2.362l-.182-2.36-.045-.59-.028-.294-.037-.262a3.433 3.433 0 00-.304-.986c-.58-1.245-1.859-2.066-3.145-2.07h-.243l-.292.013-.592.026-1.184.052-2.367.107-9.462.338-1.184.042-.591.021-.115.001c-.179 0-.387-.009-.569-.013a8.865 8.865 0 01-2.774-.587c-1.764-.714-3.311-1.994-4.292-3.662a9.065 9.065 0 01-1.056-2.695c-.211-.952-.234-1.933-.129-2.905.207-1.953 1.156-3.804 2.53-5.21a9.007 9.007 0 015.236-2.589c.246-.042.496-.042.743-.062l.364-.018.296-.002 1.18-.016 2.368-.03 9.463-.082 9.465-.029 9.462.025 2.365.018.591.005.296.003h.137c.049 0 .095 0 .125-.003.137-.01.273-.008.41-.019a9.02 9.02 0 01.397-.056 4.486 4.486 0 003.575-4.822 4.558 4.558 0 00-1.472-2.932 4.52 4.52 0 00-1.438-.888c-.129-.062-.266-.099-.403-.136l-.208-.06-.209-.037c-.14-.026-.281-.057-.424-.058-.157-.007-.258-.03-.478-.03l-4.736-.122c-3.152-.087-6.305-.144-9.462-.258l-4.731-.167-2.367-.083-.296-.012-.369-.026c-.246-.011-.486-.073-.728-.119a5.275 5.275 0 01-1.365-.543 5.202 5.202 0 01-1.988-2.066 5.018 5.018 0 01-.577-2.748 5.012 5.012 0 01.948-2.585c.278-.365.595-.696.956-.973a5.046 5.046 0 011.181-.656c.42-.151.853-.271 1.297-.297a2.36 2.36 0 01.314-.017l.145.001.148.002h.048l.593.032c.216.012.413.022.599.022.171 0 .334-.008.508-.03.354-.056.71-.138 1.044-.292a3.967 3.967 0 001.708-1.399c.223-.311.393-.658.516-1.026.137-.365.192-.755.226-1.149.066.784-.075 1.618-.466 2.34a4.438 4.438 0 01-1.7 1.79c-.363.224-.77.365-1.187.478-.41.104-.873.132-1.248.15l-.593.033c-.177.025-.347.026-.519.071-.346.056-.667.189-.971.337a3.794 3.794 0 00-.827.587 4.391 4.391 0 00-.629.775 3.49 3.49 0 00-.494 1.863c.008 1.292.811 2.475 1.916 2.97.272.121.562.207.85.26.132.01.258.037.39.037l.054-.001.22.001.296-.009 2.367-.084 4.731-.169c3.157-.112 6.31-.169 9.462-.256l4.736-.121c.045-.003.099-.004.155-.004.166 0 .372.008.547.014.25.002.5.037.746.073l.373.056.367.087c.248.056.49.121.729.21a8.177 8.177 0 012.622 1.485c1.548 1.298 2.617 3.206 2.853 5.249a8.362 8.362 0 01-1.472 5.839c-1.18 1.688-3.024 2.899-5.057 3.33l-.77.122c-.255.029-.513.037-.775.051-.14.008-.231.008-.33.008l-.296.003-.591.005-2.365.019-9.461.024-9.466-.028-9.463-.083-2.367-.03-1.181-.014-.295-.004-.232.008c-.144.01-.292-.003-.437.02a5.471 5.471 0 00-3.145 1.427c-.849.817-1.472 1.905-1.65 3.094-.095.592-.121 1.212-.018 1.81.097.598.291 1.183.575 1.727.562 1.096 1.526 1.981 2.657 2.516a5.902 5.902 0 001.817.483c.167.009.296.03.494.038l.591.02 1.184.041 9.462.338 2.367.105 1.185.054.591.026.296.014.353.032a4.88 4.88 0 012.539 1.043c.36.283.679.616.937.99.262.369.47.776.611 1.202.151.422.23.866.25 1.307l.012.329-.008.296-.016.595c-.022.793-.046 1.585-.079 2.376a85.25 85.25 0 01-.152 2.375c-.037.397-.073.792-.125 1.186-.065.39-.099.8-.273 1.158z" fill="#F1D7FF"/><path d="M509.331 386.869l.118-.028.045.01-.163.018zm-5.599-.365c-7.18-1.743-12.529-8.233-12.529-15.949v-19.652a2.416 2.416 0 012.413-2.415h4.447a2.755 2.755 0 00-1.434 2.415v19.652c0 6.598 3.817 12.307 9.359 15.037-.724.355-1.479.66-2.256.912z" fill="#FDEDB8"/><path d="M507.588 387.299c-.341 0-.683-.009-1.02-.03a16.712 16.712 0 002.762-.4l.163-.018c.323.078.656.146.987.203-.942.16-1.901.245-2.892.245zm-4.484-.609c-7.061-1.963-12.239-8.445-12.239-16.135v-19.652a2.754 2.754 0 012.75-2.754h5.767c-.478 0-.929.124-1.32.339h-4.447a2.416 2.416 0 00-2.413 2.415v19.652c0 7.716 5.349 14.206 12.529 15.949-.21.065-.419.127-.627.186z" fill="#C3B2D5"/><path d="M507.587 386.962c-1.327 0-2.621-.159-3.857-.458a17.076 17.076 0 002.256-.912c1.093.538 2.25.959 3.462 1.25l-.119.027a16.27 16.27 0 01-1.742.093z" fill="#EBDBC1"/><path d="M506.568 387.269a16.401 16.401 0 01-3.464-.579c.208-.058.417-.121.627-.186a16.455 16.455 0 005.599.365c-.895.207-1.817.343-2.762.4z" fill="#C3B2D5"/><path d="M538.298 363.196v2.755c0 3.971-2.159 7.632-5.642 9.538l-7.774 4.435a7.35 7.35 0 01-4.158.97 16.517 16.517 0 003.422-7.981h.008c.056-.434.106-.887.133-1.33l4.693-2.679c1.123-.613 1.779-1.736 1.779-2.953v-2.755a3.343 3.343 0 00-3.335-3.339h-3.107v-7.547h3.107c6.002 0 10.874 4.876 10.874 10.886z" fill="#F7C414"/><path d="M524.439 373.252a16.862 16.862 0 01-3.044 7.316 7.057 7.057 0 003.321-.94l7.77-4.433a10.523 10.523 0 005.475-9.244v-2.754c0-5.816-4.728-10.548-10.536-10.548h-2.77v6.87h2.77a3.682 3.682 0 013.676 3.678v2.754c0 1.366-.732 2.58-1.958 3.251l-4.53 2.586c-.03.391-.071.788-.121 1.169l-.053.296v-.001zm-3.229 7.998c-.17 0-.337-.006-.509-.017l-.641-.043.399-.506a16.236 16.236 0 003.354-7.818l.042-.291c.042-.336.072-.676.094-1.013l.012-.183 4.852-2.769c1.01-.553 1.609-1.546 1.609-2.659v-2.755a3 3 0 00-2.997-2.999h-3.449v-8.227h3.449c6.184 0 11.211 5.036 11.211 11.226v2.755c0 4.105-2.23 7.874-5.819 9.834l-7.767 4.432a7.744 7.744 0 01-3.839 1.033h-.001z" fill="#390075"/><path d="M524.154 372.913h.008-.008zm-30.539-22.731a.723.723 0 00-.721.722v19.651c0 8.112 6.591 14.713 14.694 14.713 4.356 0 8.461-1.919 11.257-5.263.077-.088.137-.161.186-.234.034-.048.065-.095.103-.138a14.566 14.566 0 003.001-6.999.761.761 0 01.031-.169c.038-.333.071-.676.094-1.011a17.5 17.5 0 00.023-.899v-19.651a.723.723 0 00-.72-.722h-27.948zm13.973 39.152c-10.342 0-18.757-8.424-18.757-18.779v-19.651a4.792 4.792 0 014.784-4.788h27.947a4.792 4.792 0 014.784 4.788v19.651c0 .377-.008.764-.03 1.143-.031.474-.079.966-.148 1.477-.008.077-.023.15-.042.223a18.557 18.557 0 01-3.764 8.699 6.28 6.28 0 01-.413.534 18.683 18.683 0 01-14.361 6.703z" fill="#2C2F3D"/><path d="M526.126 373.399a18.53 18.53 0 01-1.115 4.11l6.636-3.787a8.847 8.847 0 004.621-7.771v-2.754c0-4.882-3.97-8.854-8.844-8.854h-1.078v3.482h1.078a5.376 5.376 0 015.368 5.372v2.755c0 1.964-1.089 3.779-2.837 4.737l-3.742 2.137c-.015.115-.026.231-.045.35-.008.077-.022.15-.042.223zm-4.917 9.547c-.205 0-.414-.008-.622-.023a2.037 2.037 0 01-1.723-1.204c-.303-.69-.2-1.494.27-2.086a14.55 14.55 0 003-6.999.826.826 0 01.032-.169c.037-.333.071-.676.093-1.011a2.03 2.03 0 011.022-1.637l4.692-2.679c.482-.266.756-.703.756-1.187v-2.754c0-.72-.585-1.306-1.306-1.306h-3.111a2.032 2.032 0 01-2.029-2.033v-7.548c0-1.123.91-2.034 2.029-2.034h3.111c7.118 0 12.908 5.797 12.908 12.921v2.754a12.89 12.89 0 01-6.704 11.323l-7.74 4.416a9.416 9.416 0 01-4.678 1.256z" fill="#2C2F3D"/><path d="M250.312 264.787l.34 1.727 13.613 69.331c-.114-6.506 3.58-12.374 6.837-18.007 1.654-2.85 3.258-5.92 4.233-9.077.957-3.069 1.323-6.218.583-9.338-.87-3.69-3.196-6.837-4.59-10.36-5.243-13.237 3.415-28.54-.34-42.283-1.524-5.572-5.121-10.542-9.938-13.733-1.2-.794-2.682-1.5-4.032-1.012-2.403.871-2.168 4.29-1.733 6.81 1.524 8.869-.279 18.277-4.973 25.942z" fill="#30CE52"/><path d="M271.908 312.105a34.823 34.823 0 00-2.263-4.884c-1.418-2.52-3.124-4.853-4.773-7.111-2.229-3.048-4.332-5.925-5.749-9.182a23.936 23.936 0 01-1.72-12.779c.095-.662.216-1.32.34-1.979.31-1.679.629-3.413.56-5.252-.073-1.864-.671-4.068-2.053-5.72a37.182 37.182 0 001.666-3.59c.498.058.989.195 1.465.421 2.089 1.003 3.099 3.471 3.195 5.78.088 2.312-.557 4.578-.888 6.871a25.747 25.747 0 001.864 13.848c2.613 6.009 7.402 10.778 10.617 16.481.003.003.004.006.006.01-.342 2.384-1.194 4.778-2.267 7.086z" fill="#32A559"/><path d="M253.754 262.604c3.605-7.402 4.87-15.996 3.472-24.097-.452-2.619-.278-4.343.465-4.614a.803.803 0 01.276-.042c.353 0 .968.163 1.996.845.245.162.486.329.724.501-1.128 1.407-.914 3.967-.568 5.967 1.183 6.846.381 14.007-2.204 20.443a5.187 5.187 0 00-.598-.035c-1.203 0-2.431.408-3.563 1.032z" fill="#A2E9B1"/><path d="M256.251 265.198a6.725 6.725 0 00-2.793-1.993c.101-.199.202-.4.298-.601 1.132-.624 2.359-1.032 3.563-1.032.201 0 .399.012.598.035a37.088 37.088 0 01-1.666 3.591z" fill="#A3D6B4"/><path d="M264.263 337.823a1.974 1.974 0 01-1.974-1.943c-.112-6.644 3.241-12.393 6.482-17.954l.628-1.078c3.028-5.223 5.943-11.323 4.603-16.973-.472-1.995-1.451-3.871-2.488-5.859-.704-1.347-1.432-2.742-2.016-4.22-2.963-7.475-1.8-15.448-.676-23.159.993-6.808 1.93-13.24.266-19.331-1.393-5.098-4.718-9.694-9.123-12.609-1.378-.915-2.013-.896-2.272-.804-.743.272-.917 1.996-.465 4.615 1.605 9.307-.302 19.264-5.234 27.315a1.972 1.972 0 01-2.715.652 1.98 1.98 0 01-.652-2.718c4.439-7.245 6.156-16.203 4.711-24.577-.852-4.937.161-7.967 3.008-9.001 2.551-.926 4.996.688 5.799 1.22 5.19 3.436 9.108 8.854 10.75 14.864 1.882 6.889.84 14.034-.167 20.945-1.098 7.527-2.135 14.637.438 21.13.51 1.288 1.16 2.532 1.848 3.848 1.104 2.115 2.245 4.302 2.83 6.775 1.661 7.003-1.61 13.974-5.03 19.871l-.633 1.087c-2.969 5.091-6.039 10.355-5.945 15.893a1.975 1.975 0 01-1.941 2.011h-.032z" fill="#2C2F3D"/><path d="M268.4 341.505c5.385-10.248 5.2-23.224-.476-33.315-3.207-5.704-8.001-10.474-10.611-16.475a25.744 25.744 0 01-1.864-13.847c.329-2.292.971-4.561.882-6.875-.09-2.312-1.105-4.781-3.191-5.779-2.579-1.232-5.658.22-7.79 2.122-4.961 4.421-7.351 11.254-7.359 17.904-.009 6.648 2.156 13.14 5.12 19.089 2.134 4.285 4.771 8.684 4.429 13.459-.312 4.38-3.07 8.127-5.07 12.033-2.001 3.906-3.19 8.946-.571 12.465l26.501-.781z" fill="#30CE52"/><path d="M245.777 340.65h-2.6c-1.949-3.282.056-7.992 1.047-9.926.449-.874.929-1.731 1.44-2.637 1.756-3.124 3.572-6.353 3.846-10.156.337-4.74-1.786-8.9-3.841-12.919-.267-.525-.533-1.045-.792-1.565-3.313-6.648-4.919-12.602-4.913-18.206.008-6.555 2.512-12.697 6.698-16.43 1.125-1.003 2.729-1.97 4.187-2.066-.246.191-.483.387-.709.587-4.957 4.422-7.352 11.258-7.36 17.912-.009 6.644 2.16 13.141 5.121 19.088 2.133 4.281 4.772 8.684 4.433 13.454-.314 4.377-3.076 8.125-5.078 12.034-1.701 3.331-2.818 7.492-1.479 10.83z" fill="#A2E9B1"/><path d="M241.9 344.264a1.976 1.976 0 01-1.585-.796c-2.656-3.568-2.511-8.87.396-14.549a82.64 82.64 0 011.513-2.772c1.614-2.869 3.138-5.579 3.347-8.498.26-3.64-1.527-7.137-3.417-10.839-.274-.534-.546-1.067-.811-1.597-3.593-7.212-5.335-13.745-5.327-19.975.009-7.779 2.933-14.842 8.02-19.378 3.285-2.928 7.006-3.837 9.952-2.429 3.025 1.446 4.211 4.816 4.314 7.487.069 1.839-.25 3.574-.56 5.252a46.479 46.479 0 00-.34 1.979 23.933 23.933 0 001.72 12.779c1.417 3.257 3.52 6.134 5.749 9.182 1.649 2.258 3.356 4.591 4.773 7.111 5.967 10.609 6.165 24.428.502 35.205a1.974 1.974 0 11-3.493-1.841c5.052-9.618 4.876-21.953-.45-31.424-1.301-2.314-2.864-4.453-4.518-6.716-2.257-3.088-4.592-6.281-6.184-9.938a27.572 27.572 0 01-2.006-14.92c.102-.715.233-1.424.364-2.137.284-1.532.552-2.98.499-4.379-.057-1.449-.632-3.385-2.069-4.072-1.728-.826-4.112.462-5.628 1.813-4.186 3.733-6.69 9.874-6.697 16.43-.007 5.603 1.599 11.557 4.912 18.205.259.52.525 1.041.792 1.565 2.055 4.02 4.178 8.179 3.841 12.919-.274 3.803-2.09 7.033-3.846 10.156a77.092 77.092 0 00-1.439 2.637c-1.037 2.027-3.19 7.097-.743 10.383a1.98 1.98 0 01-.403 2.766 1.959 1.959 0 01-1.179.391h.001z" fill="#2C2F3D"/><path d="M252.223 387.3h7.906c7.761 0 14.132-6.143 14.421-13.908l1.067-28.599a3.99 3.99 0 00-3.987-4.143h-30.907a3.99 3.99 0 00-3.987 4.143l1.067 28.599c.29 7.765 6.66 13.908 14.42 13.908z" fill="#428AF9"/><path d="M273.468 341.098a3.955 3.955 0 00-1.839-.448h-.614c.117-.26.231-.52.343-.781.83.182 1.562.62 2.11 1.229z" fill="#AB6BD5"/><path d="M266.618 340.65h-1.754a3.972 3.972 0 00-2.491-.873h4.687a32.09 32.09 0 01-.408.808l-.033.065h-.001z" fill="#33905D"/><path d="M271.013 340.65h-4.394l.034-.065c.138-.266.275-.535.408-.808h3.439c.293 0 .58.033.856.093-.112.261-.225.52-.343.78z" fill="#390075"/><path d="M259.003 386.429H252.5c-.062-.022-.125-.047-.187-.071 7.098-.7 12.709-6.56 12.979-13.837l1.072-28.601a3.978 3.978 0 00-1.499-3.27h6.762c.666 0 1.29.161 1.84.448a3.969 3.969 0 011.022 2.822l-1.063 28.601c-.294 7.759-6.662 13.908-14.422 13.908h-.001z" fill="#3F60D1"/><path d="M257.444 387.3h-5.225 5.225z" fill="#A68CC1"/><path d="M238.785 378.129a14.478 14.478 0 01-.987-4.737l-.618-16.632.622 16.632c.062 1.668.405 3.263.983 4.737z" fill="#fff"/><path d="M257.447 387.3h-5.226c-1.352 0-2.662-.187-3.907-.536a14.476 14.476 0 01-9.529-8.635 14.42 14.42 0 01-.984-4.737l-.621-16.632-.444-11.969a3.99 3.99 0 013.989-4.141h5.225a3.992 3.992 0 00-3.989 4.141l1.063 28.601a14.461 14.461 0 009.29 12.966c-.439.045-.882.068-1.33.071h1.518c1.543.563 3.209.871 4.945.871z" fill="#AACAFC"/><path d="M252.503 386.428h-1.518c.448-.003.891-.026 1.33-.07.063.023.125.048.188.07z" fill="#A8B7EA"/><path d="M240.723 342.624c-.554 0-1.069.221-1.452.621a2.003 2.003 0 00-.565 1.475l1.069 28.599a12.424 12.424 0 0012.449 12.006h7.905c6.73 0 12.197-5.274 12.45-12.007l1.067-28.596a2.001 2.001 0 00-.564-1.477c-.383-.4-.899-.62-1.453-.62h-30.906v-.001zm19.406 46.653h-7.905a16.36 16.36 0 01-16.394-15.81l-1.068-28.599a5.928 5.928 0 011.665-4.366 5.914 5.914 0 014.296-1.83h30.907c1.636 0 3.161.651 4.296 1.83a5.924 5.924 0 011.665 4.367l-1.068 28.596a16.36 16.36 0 01-16.394 15.812z" fill="#2C2F3D"/><path d="M275.366 353.525l-38.379-1.974 38.379-1.978v3.952zm-22.925-51.727c2.384 2.496 4.794 5.025 6.588 8.09.887 1.53 1.606 3.184 2.043 4.947.435 1.756.562 3.654.263 5.49-.583 3.679-2.363 6.871-3.335 9.97-.477 1.535-.764 3.112-.723 4.586.036 1.476.438 2.8 1.206 3.768a1.981 1.981 0 01-.32 2.782 1.975 1.975 0 01-2.898-.484l-.039-.064c-1.208-1.899-1.55-4.129-1.403-6.094.145-1.989.69-3.816 1.399-5.522 1.451-3.366 3.381-6.176 4.178-9.327.826-3.104.168-6.538-1.247-9.594-1.425-3.083-3.574-5.838-5.712-8.548z" fill="#2C2F3D"/><path d="M301.796 178.229c-.398 0-.796-.103-1.157-.314l-14.871-8.692a5.535 5.535 0 00-2.789-.76c-.474 0-.946.062-1.399.185a35.324 35.324 0 01-8.875 1.206l-.305.002c-19.207 0-35.08-15.635-35.383-34.853-.152-9.575 3.457-18.602 10.16-25.423 6.706-6.819 15.663-10.575 25.221-10.575.232 0 .462 0 .696.004 19.275.371 34.836 16.389 34.685 35.701a35.368 35.368 0 01-9.109 23.437c-1.665 1.846-1.932 4.544-.665 6.716l5.777 9.906a2.305 2.305 0 01-.361 2.787 2.298 2.298 0 01-1.625.673z" fill="#fff"/><path d="M272.4 96.703v4.603-4.603h-.004c-10.178 0-19.717 3.999-26.858 11.267-7.138 7.262-10.981 16.874-10.82 27.07.324 20.465 17.228 37.116 37.682 37.116h.325a37.78 37.78 0 009.45-1.285c.26-.072.53-.107.803-.107.567 0 1.133.155 1.631.446l14.87 8.693a4.588 4.588 0 005.567-.72 4.606 4.606 0 00.72-5.574l-5.778-9.906c-.759-1.302-.603-2.915.387-4.015a37.676 37.676 0 009.703-24.959c.159-20.568-16.412-37.624-36.941-38.018-.246-.004-.491-.008-.737-.008zm-.002 4.603c.216 0 .432 0 .651.004 18.022.349 32.573 15.338 32.432 33.383-.064 8.428-3.279 16.101-8.517 21.912-2.335 2.59-2.701 6.405-.944 9.418l5.775 9.906-14.869-8.693a7.819 7.819 0 00-5.943-.812 32.911 32.911 0 01-8.297 1.129l-.286.001c-17.953 0-32.801-14.582-33.085-32.586-.295-18.54 14.631-33.662 33.083-33.662z" fill="#2C2F3D"/><path d="M244.318 151.334a38.085 38.085 0 01-.782-.775 32.767 32.767 0 01-4.091-13.113v-.012a32.98 32.98 0 01-.132-2.466c-.276-17.4 12.852-31.789 29.718-33.494a33.676 33.676 0 013.364-.168c.216 0 .434 0 .652.004 8.98.175 17.095 3.984 22.964 9.994.339.604.66 1.22.964 1.842-5.797-5.564-13.599-9.059-22.191-9.226a35.652 35.652 0 00-.653-.008c-18.452 0-33.375 15.122-33.082 33.664a32.734 32.734 0 003.269 13.758z" fill="#fff"/><path d="M239.445 137.446v-.012.012zm-.003-.032a32.952 32.952 0 01-.129-2.447c-.276-17.4 12.853-31.789 29.718-33.493-16.867 1.704-29.994 16.093-29.718 33.493.013.824.056 1.64.129 2.447z" fill="#9C80BA"/><path d="M301.795 175.929l-14.869-8.693a7.786 7.786 0 00-5.943-.812 32.911 32.911 0 01-8.297 1.129l-.286.001c-3.017 0-5.943-.41-8.728-1.179l-.004-.001c-.03-.01-.06-.017-.091-.025-.003-.002-.005-.004-.008-.004l-.039-.011-.008-.001-.041-.013-.015-.004c-.009-.001-.017-.004-.026-.006a.096.096 0 01-.018-.007 1.304 1.304 0 01-.06-.015l-.015-.006c-8.461-2.431-15.585-8.18-19.827-15.742a.082.082 0 01.018.019 33.85 33.85 0 002.208 3.419 33.93 33.93 0 01-1.427-2.644c5.963 5.73 14.04 9.263 22.87 9.266.094 0 .188-.003.284-.003a33.049 33.049 0 008.298-1.128c.279-.076.701-.128 1.22-.163 4.929-.326 9.337-2.977 12.343-6.902.74-.967 1.583-1.832 2.418-2.756a33.003 33.003 0 008.518-21.912 32.805 32.805 0 00-3.294-14.59 33.675 33.675 0 013.791 4.323 33.503 33.503 0 00-4.755-6.164c-.002 0-.002-.004-.004-.004 5.912 6.05 9.543 14.335 9.473 23.392a32.993 32.993 0 01-8.433 21.818l-.041.045c-.013.017-.028.032-.044.049a7.967 7.967 0 00-2.045 5.441 7.826 7.826 0 001.068 3.921l.005.008c.009.015.018.032.029.048l2.32 3.979 3.455 5.927z" fill="#C3B2D5"/><path d="M301.796 175.929l-14.87-8.692a7.802 7.802 0 00-3.947-1.068c-.681 0-1.365.088-2.035.267a33.111 33.111 0 01-8.259 1.118l-.286.002a32.76 32.76 0 01.002-.002c.093 0 .189 0 .285-.002a32.91 32.91 0 008.297-1.128 7.753 7.753 0 011.996-.261c1.374 0 2.74.365 3.947 1.072l14.87 8.693v.001zm-3.455-5.927l-2.32-3.979c-.011-.016-.02-.033-.029-.049l2.349 4.028zm-34.673-3.629zm-.099-.028l-.039-.011.039.011zm-.046-.012l-.041-.013.041.013zm-.057-.017c-.009-.001-.016-.004-.026-.007.01.003.017.006.026.007zm-.044-.013l-.027-.007.027.007zm-.06-.016l-.014-.005.014.005zm31.557-4.241a7.971 7.971 0 012.045-5.442c.015-.017.031-.031.044-.048a8.269 8.269 0 00-2.089 5.49z" fill="#390075"/><path d="M245.744 153.978a33.85 33.85 0 01-2.208-3.419c.257.264.517.519.782.775.436.904.913 1.785 1.426 2.644zm55.022-36.51a33.743 33.743 0 00-3.791-4.322 37.458 37.458 0 00-.964-1.842 33.609 33.609 0 014.754 6.164h.001z" fill="#C3B2D5"/><path d="M267.532 144.305c0-2.305 1.609-3.958 3.868-3.958 2.345 0 3.865 1.653 3.909 3.958 0 2.262-1.564 3.958-3.909 3.958-2.303 0-3.868-1.696-3.868-3.958zm1.129-6.003c-.704-14.504-5.54-27.104 3.395-27.007 8.217.091 3.247 12.133 2.384 27.007h-5.779z" fill="#2C2F3D"/><path d="M340.51 178.633c-10.671 18.989-15.763 40.117-15.277 63.384l106.593-2.606c13.044-23.31 12.158-54.012.09-69.478l-91.406 8.7z" fill="#8A423A"/><path d="M327.063 239.232c-.029-20.726 4.566-39.92 13.674-57.126a15.204 15.204 0 002.059 1.939c-7.994 15.856-12.245 33.151-12.738 51.887a27.822 27.822 0 00-2.995 3.3z" fill="#CAAAA6"/><path d="M341.659 180.396c-9.852 17.883-14.759 37.958-14.592 59.711l103.644-2.534c11.462-21.299 11.602-50.258.346-65.686l-89.398 8.509zm-16.426 63.485c-.481 0-.942-.184-1.288-.516a1.872 1.872 0 01-.576-1.31c-.49-23.496 4.731-45.142 15.518-64.337.298-.532.84-.883 1.447-.942l91.406-8.7a1.874 1.874 0 011.644.709c6.192 7.936 9.661 19.631 9.767 32.929.107 13.528-3.338 27.239-9.699 38.609a1.86 1.86 0 01-1.579.951l-106.596 2.607h-.044z" fill="#2C2F3D"/><path d="M452.99 282.904H315.355c1.883-14.97 5.304-27.89 10.582-38.399 3.395-6.737 9.58-11.632 16.878-13.475l30.184-7.567.819-.209a4.92 4.92 0 003.725-4.555l.224-4.611s11.421-16.476 22.261-2.474v5.406a5.205 5.205 0 002.894 4.663l5.675 2.809 4.958 2.456 5.279 2.62.881.434 10.366 5.136 5.415 2.681 2.774 1.376a17.092 17.092 0 018.681 10.075c2.756 8.605 4.561 18.049 5.572 28.178.181 1.798.338 3.615.467 5.456z" fill="#FFB78A"/><path d="M315.752 282.553h136.862c-.124-1.697-.271-3.4-.44-5.071-1.033-10.366-2.904-19.822-5.556-28.106a16.832 16.832 0 00-8.505-9.867l-35.347-17.514a5.52 5.52 0 01-3.089-4.975v-5.285c-2.876-3.678-6.033-5.494-9.42-5.408-6.355.167-11.547 7.058-12.146 7.881l-.22 4.506a5.304 5.304 0 01-3.987 4.882l-.821.206-30.183 7.568c-7.246 1.829-13.316 6.673-16.652 13.292-5.029 10.016-8.56 22.76-10.496 37.891zm137.237.702H315.354a.353.353 0 01-.263-.118.36.36 0 01-.084-.278c1.936-15.382 5.508-28.339 10.616-38.512 3.426-6.801 9.661-11.778 17.107-13.657l31.003-7.775a4.599 4.599 0 003.459-4.233l.225-4.612a.356.356 0 01.063-.183c.228-.328 5.676-8.074 12.756-8.26 3.637-.105 7.029 1.845 10.069 5.772a.353.353 0 01.073.214v5.406a4.823 4.823 0 002.701 4.348l35.346 17.512a17.551 17.551 0 018.86 10.283c2.668 8.331 4.548 17.835 5.586 28.249.182 1.802.34 3.639.468 5.468a.352.352 0 01-.349.376h-.001z" fill="#390075"/><path d="M320.723 279.954h-3.09c1.973-13.728 5.323-25.359 9.971-34.609a24.014 24.014 0 0113.268-11.768l-.092 2.92a25.882 25.882 0 00-10.291 10.819c-4.585 9.132-7.771 20.097-9.766 32.638zm39.048-49.222c-.374-.571-.75-1.152-1.127-1.747l14.155-3.549a3.859 3.859 0 01-2.784 2.728l-10.244 2.568z" fill="#FFDFCA"/><path d="M392.515 227.767c-6.181 0-11.766-1.159-16.908-3.186a6.75 6.75 0 003.799-5.79l.03-.627a47.8 47.8 0 0010.68 1.179 53.17 53.17 0 003.56-.12 53.56 53.56 0 004.651-.706 7.023 7.023 0 003.766 4.833l1.66.821c.107.634.207 1.268.306 1.903a48.558 48.558 0 01-8.219 1.582 50.03 50.03 0 01-3.325.111z" fill="#C38084"/><path d="M430.08 235.137v47.769h-88.919l1.656-51.873 12.894-3.23c19.892 32.584 40.922 40.319 64.047 2.219l10.322 5.115z" fill="#F75CB8"/><path d="M450.888 279.954h-2.532l-10.233-17.946-2.061-3.614-1.032-1.806a49.825 49.825 0 01-.944-1.751 37.741 37.741 0 01-2.143-5.126v-11.572l3.651 1.809c.033.439.072.876.12 1.314a39.548 39.548 0 004.985 15.436l9.49 16.653c.271 2.156.504 4.358.7 6.603h-.001z" fill="#C38084"/><path d="M345.823 279.954h-2.701l1.515-47.455 10.208-2.558c.38.611.761 1.211 1.14 1.8l-8.692 2.178-1.469 46.035h-.001zm47.396-21.524c-2.192 0-4.369-.379-6.531-1.118.688.067 1.376.101 2.064.101h.027c7.547-.011 14.875-3.985 22.172-12.079.034.156.067.316.104.473.216 1.009.474 2.006.774 2.992.034.118.069.234.104.349-6.387 6.35-12.618 9.282-18.714 9.282z" fill="#FBB5DF"/><path d="M343.083 281.041h85.134v-44.747l-7.765-3.846c-10.478 16.781-20.851 24.952-31.674 24.965h-.027c-11.303.001-22.402-8.988-33.91-27.472l-10.208 2.558-1.55 48.542zm86.996 3.731H341.16a1.87 1.87 0 01-1.862-1.925l1.656-51.873a1.865 1.865 0 011.41-1.75l12.894-3.232a1.864 1.864 0 012.043.837c10.875 17.819 21.459 26.855 31.451 26.855h.019c9.592-.012 19.481-8.299 29.394-24.63a1.862 1.862 0 012.418-.703l10.322 5.113a1.87 1.87 0 011.037 1.672v47.769a1.864 1.864 0 01-1.863 1.866v.001z" fill="#2C2F3D"/><path d="M317.48 281.042h133.502c-.947-11.65-2.897-22.138-5.804-31.199a15.326 15.326 0 00-7.735-8.98l-35.35-17.513a7.027 7.027 0 01-3.924-6.33v-4.754c-2.415-2.939-4.995-4.427-7.676-4.427-.062 0-.122.001-.183.003-5.111.128-9.534 5.384-10.709 6.906l-.196 4.043a6.76 6.76 0 01-5.132 6.276l-31.003 7.775c-6.823 1.715-12.532 6.272-15.666 12.503-4.769 9.492-8.172 21.494-10.125 35.697h.001zm135.511 3.73H315.356a1.863 1.863 0 01-1.848-2.099c1.951-15.543 5.575-28.665 10.769-39.004 3.621-7.201 10.214-12.465 18.088-14.445l31-7.773a3.094 3.094 0 002.32-2.836l.224-4.616a1.86 1.86 0 01.33-.974c.246-.355 6.125-8.705 13.964-8.911 4.139-.103 7.949 2.03 11.3 6.357.254.326.389.729.389 1.142v5.407c0 1.276.712 2.421 1.854 2.988l35.35 17.514a19.081 19.081 0 019.629 11.178c3.163 9.863 5.224 21.327 6.124 34.075a1.864 1.864 0 01-1.858 1.997z" fill="#2C2F3D"/><path d="M430.184 156.393v21.639c0 5.891-1.287 11.736-3.929 16.995-7.378 14.719-19.542 20.903-32.784 22.34-9.321.604-17.329-1.35-24.473-4.99-7.186-3.651-12.482-10.18-14.831-17.895l-2.876-9.401c-12.89 0-17.079-18.837-9.46-24.398 1.434-1.046 3.283-1.626 5.572-1.522.025-.008.043 0 .059 0 25.839 2.222 50.786-15.714 52.488-39.957 1.072 3.158 2.202 6.115 3.428 8.875 2.524 5.733 5.409 10.637 8.883 14.84 4.706 5.699 10.494 10.094 17.923 13.474z" fill="#FFB78A"/><path d="M346.881 159.5c-1.881 0-3.508.493-4.843 1.466-3.499 2.555-4.644 8.33-2.785 14.044 1.529 4.699 5.495 9.72 12.038 9.72.155 0 .29.1.334.247l2.876 9.402c2.347 7.699 7.688 14.144 14.656 17.683 7.65 3.899 15.595 5.52 24.292 4.952 15.007-1.626 25.943-9.076 32.492-22.145 2.547-5.068 3.893-10.891 3.893-16.837v-21.413c-7.28-3.347-13.119-7.756-17.843-13.476-3.406-4.123-6.328-9.005-8.931-14.924a98.498 98.498 0 01-2.909-7.366c-1.144 10.002-6.307 19.364-14.663 26.518-10.397 8.902-24.27 13.322-38.054 12.139a14.528 14.528 0 00-.553-.01zm43.24 58.326c-7.531 0-14.521-1.693-21.28-5.138-7.137-3.625-12.608-10.223-15.009-18.103l-2.801-9.156c-6.764-.129-10.86-5.33-12.444-10.2-1.952-6.001-.704-12.1 3.038-14.829 1.581-1.156 3.521-1.689 5.78-1.59a.502.502 0 01.097.002c13.59 1.168 27.274-3.194 37.529-11.973 8.663-7.417 13.839-17.24 14.57-27.657a.35.35 0 01.681-.091c1.117 3.293 2.236 6.186 3.419 8.844 2.577 5.86 5.465 10.687 8.83 14.76 4.699 5.691 10.522 10.066 17.798 13.378a.353.353 0 01.206.32v21.639c0 6.057-1.372 11.988-3.967 17.151-6.664 13.295-17.785 20.875-33.059 22.532-1.141.073-2.27.111-3.388.111z" fill="#390075"/><path d="M394.516 214.992c-7.058 0-13.347-1.506-19.075-4.1 2.41.392 4.914.598 7.525.598 1.088 0 2.195-.036 3.321-.109 13.242-1.436 25.404-7.62 32.781-22.339a36.299 36.299 0 002.321-5.846c1.244-.35 2.074-.97 2.074-1.68 0-.548-.494-1.042-1.292-1.401.553-2.645.827-5.351.827-8.068v-17.344a57.626 57.626 0 005.328 2.882v20.45c0 4.247-.712 8.426-2.083 12.285l-.893-1.311a2.169 2.169 0 00-2.175-.922 2.161 2.161 0 00-1.742 1.595l-.338 1.273a9.49 9.49 0 001.114 7.431c-1.678 2.604-3.583 4.922-5.703 6.949a9.412 9.412 0 00-1.796.104c-.426.072-.851.16-1.264.291l-1.012.316-1.983.626-.99.313a8.54 8.54 0 00-.559.193c-.2.077-.406.138-.6.233a9.573 9.573 0 00-5.324 6.021 43.48 43.48 0 01-5.683 1.484c-.939.051-1.865.076-2.779.076z" fill="#C38084"/><path d="M375.441 210.892a45.146 45.146 0 01-9.559-2.656c-4.653-3.508-8.174-8.532-9.93-14.298l-2.878-9.4a1.86 1.86 0 00-1.779-1.32c-5.318 0-8.177-3.711-9.41-5.923-2.419-4.348-2.664-9.95-.581-13.318.555-.899 1.248-1.594 2.074-2.084-2.886 6.863.702 18.291 9.41 20.374 1.89.453 3.361 1.946 3.929 3.806l1.813 5.925c2.35 7.716 7.645 14.245 14.832 17.895.684.348 1.378.682 2.079.999z" fill="#FFDFCA"/><path d="M390.136 215.614c-7.179 0-13.843-1.612-20.291-4.899a26.423 26.423 0 01-3.964-2.478 45.196 45.196 0 009.56 2.655c5.728 2.595 12.016 4.1 19.074 4.1.913 0 1.84-.025 2.779-.076a50.38 50.38 0 01-3.979.595 50.233 50.233 0 01-3.18.103h.001z" fill="#E4C6C8"/><path d="M346.874 161.017c-2.482 0-4.354.994-5.571 2.961-2.083 3.368-1.838 8.97.582 13.318 1.232 2.212 4.091 5.923 9.409 5.923.818 0 1.54.535 1.78 1.32l2.877 9.4c2.225 7.31 7.291 13.423 13.894 16.776 7.388 3.766 15.062 5.334 23.47 4.796 14.457-1.578 24.979-8.75 31.277-21.317 2.443-4.858 3.733-10.444 3.733-16.158v-20.45c-12.909-6.156-21.263-15.479-27.673-31.166-2.158 8.324-7.045 15.998-14.178 22.105-10.682 9.146-24.93 13.703-39.087 12.503h-.066a8.464 8.464 0 00-.447-.011zm43.241 58.326c-7.763 0-14.978-1.745-21.958-5.302-7.5-3.81-13.249-10.739-15.767-19.013l-2.494-8.148c-4.688-.459-8.74-3.234-11.264-7.769-3.087-5.547-3.29-12.575-.496-17.096 1.982-3.206 5.256-4.883 9.285-4.716.068 0 .134.001.201.008h.005c13.201 1.134 26.477-3.098 36.426-11.616 8.353-7.152 13.34-16.602 14.044-26.615a1.86 1.86 0 013.62-.467c6.525 19.161 14.997 29.617 29.241 36.09a1.864 1.864 0 011.092 1.699v21.638c0 6.294-1.426 12.459-4.128 17.833-6.908 13.781-18.43 21.639-34.247 23.354a53.17 53.17 0 01-3.56.12z" fill="#2C2F3D"/><path d="M348.076 161.37c-.09 0-.18-.005-.271-.017-.145-.018-.284-.022-.422-.027l.18-4.322c.263.011.514.025.776.058a2.162 2.162 0 01-.263 4.308z" fill="#390075"/><path d="M430.188 174.559v-18.162a27.717 27.717 0 001.927-1.488c11.033-1.972 11.895 19.65-1.927 19.65z" fill="#FFB78A"/><path d="M430.538 156.579v17.624c3.773-.107 6.733-1.941 8.361-5.191 1.846-3.687 1.6-8.489-.586-11.42-1.021-1.37-2.897-2.881-6.045-2.354-.552.465-1.121.906-1.73 1.341zm-.35 18.331a.351.351 0 01-.35-.351v-18.162c0-.113.057-.221.148-.287a26.508 26.508 0 001.902-1.47.372.372 0 01.166-.077c2.775-.495 5.196.431 6.821 2.609 2.336 3.132 2.609 8.243.65 12.155-1.802 3.599-5.117 5.583-9.337 5.583z" fill="#390075"/><path d="M432.051 157.344v15.184c3.045-.571 4.656-2.518 5.495-4.194 1.579-3.151 1.388-7.38-.443-9.836-1.041-1.394-2.449-2.003-4.201-1.819-.279.227-.56.447-.851.665zm-1.863 19.079a1.863 1.863 0 01-1.861-1.864v-18.162c0-.607.294-1.175.789-1.525.639-.45 1.226-.904 1.797-1.386.25-.214.552-.356.874-.412 3.368-.603 6.314.532 8.301 3.193 2.657 3.564 2.991 9.343.789 13.737-2.042 4.08-5.937 6.419-10.689 6.419zm-23.43 13.049c-2.061.433-3.847.909-5.602 1.223-1.745.329-3.43.536-5.143.648-1.712.107-3.452.128-5.285.116-1.837-.002-3.743-.07-5.866.093l-.009.001a.579.579 0 00-.359.99c1.556 1.522 3.433 2.552 5.46 3.245 2.025.681 4.226.985 6.429.816 4.401-.302 8.776-2.529 11.001-6.281a.58.58 0 00-.202-.788.59.59 0 00-.409-.069l-.015.005v.001z" fill="#2C2F3D"/><path d="M372.449 189.426c-2.429 0-4.277-.737-4.487-1.942-.275-1.567 2.333-3.335 5.823-3.945a13.532 13.532 0 012.328-.209c2.429 0 4.277.737 4.487 1.942.275 1.567-2.333 3.335-5.823 3.944-.808.143-1.595.21-2.328.21zm46.607-5.93c-2.433 0-4.406-.887-4.406-1.98 0-1.094 1.973-1.98 4.406-1.98 1.214 0 2.315.222 3.112.579a38.478 38.478 0 01-.781 3.081c-.678.189-1.476.3-2.331.3z" fill="#F89BA6"/><path d="M421.387 183.197c.302-1.016.564-2.044.781-3.081.799.359 1.293.853 1.293 1.401 0 .71-.83 1.331-2.074 1.68z" fill="#CF75A2"/><path d="M415.329 148.856c.038 0-.005-.016-.036-.029a.511.511 0 00-.106-.038 2.24 2.24 0 00-.249-.068c-.172-.047-.359-.07-.547-.102a6.313 6.313 0 00-1.161-.027 6.434 6.434 0 00-2.342.618c-.744.389-1.483.894-2.121 1.554-.34.31-.606.697-.922 1.051-.276.383-.534.788-.809 1.189l-.038.054a.538.538 0 01-.955-.478c.166-.49.321-.992.504-1.489.232-.476.417-.987.702-1.453.524-.96 1.237-1.847 2.091-2.641a9.586 9.586 0 013.066-1.821 9.978 9.978 0 011.784-.469c.312-.042.622-.089.945-.102.157-.015.326-.016.495-.016.082-.001.168 0 .264.007.092.003.172.006.333.03a2.16 2.16 0 011.663 2.564 2.16 2.16 0 01-2.561 1.665v.001zm-65.872 36.53l.036-8.967a.38.38 0 01.38-.378.38.38 0 01.355.257l2.904 8.484a1.89 1.89 0 11-3.675.604z" fill="#2C2F3D"/><path d="M361.248 156.082c.711.267 1.594.529 2.418.752a37.28 37.28 0 002.54.614c1.711.348 3.447.634 5.186.733 1.736.098 3.489.099 5.206-.164 1.708-.276 3.385-.77 4.932-1.611l.022-.012a.518.518 0 01.704.207.524.524 0 01-.125.651c-1.478 1.219-3.21 2.12-5.024 2.777-1.82.646-3.711 1.01-5.613 1.265-1.907.251-3.818.303-5.734.279a42.48 42.48 0 01-2.872-.134 33.981 33.981 0 01-2.944-.335l-.025-.004a2.607 2.607 0 01-2.152-2.993 2.606 2.606 0 013.481-2.025z" fill="#390075"/><path d="M443.142 130.449c-1.442 11.674-5.114 20.444-12.958 25.944-15.548-7.065-23.903-18.593-30.234-37.188-1.701 24.242-26.649 42.179-52.488 39.956-.015 0-.033-.008-.058 0-.043 0-.095-.008-.149-.008-.336-.035-.672-.07-1.002-.121-5-.745-9.224-3.642-11.86-7.654a17.768 17.768 0 01-2.927-10.44c1.467-42.108 42.328-78.103 76.691-45.516l6.012-2.769c3.974-1.833 8.725-.915 11.644 2.352a84.936 84.936 0 014.371 5.287c6.799 8.897 11.412 18.696 12.959 30.157h-.001z" fill="#8A423A"/><path d="M355.663 164.665c-1.444 0-2.891-.062-4.344-.186-.01 0-.022-.004-.035-.004-.009 0-.016.002-.025.004-.043 0-.095-.008-.147-.008-.336-.035-.673-.07-1.002-.121a17.01 17.01 0 01-6.661-2.498c.967-.557 2.112-.836 3.428-.836.147 0 .296.003.447.011h.066c.002.003.004.003.007.003l-.012.294c.138.005.278.009.422.028a2.154 2.154 0 001.232-.21 53.185 53.185 0 009.927-.401c.284.178.606.302.957.359l.024.004c1.06.173 1.968.258 2.945.335a42.42 42.42 0 002.872.134c.263.003.528.007.791.007 1.651 0 3.298-.071 4.943-.286 1.878-.253 3.745-.609 5.544-1.241-6.571 2.96-13.883 4.612-21.379 4.612zm17.718-6.424c-.663 0-1.326-.022-1.985-.06-.471-.026-.94-.068-1.409-.12 6.008-2.151 11.62-5.367 16.491-9.537 7.132-6.106 12.019-13.781 14.177-22.105a92.121 92.121 0 002.082 4.724c-2.891 11.342-10.953 20.827-21.486 26.78.304-.213.598-.436.883-.671a.521.521 0 00-.578-.858l-.022.012c-1.548.841-3.224 1.335-4.932 1.611a21.256 21.256 0 01-3.221.224z" fill="#D79286"/><path d="M343.448 161.853c-.562-.36-1.101-.75-1.615-1.17.292-.214.602-.407.931-.58a19.01 19.01 0 004.329.906l.161.013a.949.949 0 00.093.005h-.025c-.151-.007-.3-.01-.447-.01-1.316 0-2.461.279-3.427.836zm8.411-.635a52.08 52.08 0 01-.005-.001 53.68 53.68 0 007.109-.475h.001a53.441 53.441 0 01-7.105.476zm-4.464-.188c-.003 0-.005 0-.007-.003.002.003.004.003.007.003zm22.591-2.969h-.002c6.007-2.15 11.62-5.365 16.492-9.536-4.871 4.169-10.483 7.386-16.49 9.536zm-21.91 3.308c-.09 0-.18-.005-.271-.017-.145-.018-.284-.022-.422-.027l.012-.295c.548.046 1.095.083 1.643.112a2.162 2.162 0 01-.962.227zm18.478.211c-.263 0-.528-.003-.791-.006a42.42 42.42 0 01-2.872-.134 33.586 33.586 0 01-2.945-.336l-.024-.003a2.605 2.605 0 01-.957-.359h-.001a53.896 53.896 0 0011.021-2.68h.002c.469.052.938.094 1.408.12.659.037 1.322.06 1.985.06 1.079 0 2.158-.062 3.221-.225 1.708-.275 3.384-.769 4.932-1.61l.022-.012a.518.518 0 01.704.207.523.523 0 01-.126.651c-.285.235-.579.458-.883.67a51.672 51.672 0 01-4.209 2.13c-1.799.633-3.666.989-5.544 1.242-1.645.215-3.293.286-4.943.286v-.001z" fill="#2C2F3D"/><path d="M336.144 150.666a15.954 15.954 0 01-2.816-9.666c.822-23.55 14.78-46.12 33.19-53.672 4.331-1.774 8.724-2.652 13.1-2.652 5.279 0 10.53 1.277 15.607 3.8-3.923-1.365-7.838-2.007-11.677-2.007-25.162 0-47.16 27.448-48.238 58.145a17.877 17.877 0 00.834 6.052zm75.867-51.567a60.541 60.541 0 00-2.502-2.245l5.445-2.503a8.196 8.196 0 013.443-.756c1.908 0 3.787.657 5.254 1.9a10.12 10.12 0 00-5.628.835l-6.013 2.769h.001z" fill="#CAAAA6"/><path d="M347.623 157.307h.004c13.201 1.134 26.477-3.098 36.426-11.616 8.354-7.152 13.34-16.602 14.044-26.615a1.861 1.861 0 013.62-.467c6.375 18.716 14.604 29.127 28.258 35.632.321-.246.632-.495.937-.755 5.677-4.814 8.973-12.132 10.355-23.024-1.7-12.225-7.21-23.42-16.839-34.211-2.336-2.614-6.234-3.395-9.475-1.9l-6.015 2.766a1.855 1.855 0 01-2.058-.338c-12.344-11.707-26.675-15.06-40.363-9.45-18.409 7.551-32.368 30.122-33.19 53.672-.294 8.398 5.898 15.556 14.098 16.294l.05.004c.051 0 .1.002.148.008zm4.23 3.91c-1.487 0-2.975-.061-4.465-.189-.045 0-.089 0-.135-.005l-.161-.013c-10.169-.916-17.85-9.764-17.489-20.141.887-25.345 15.485-48.781 35.503-56.99 14.777-6.058 30.146-2.742 43.408 9.329l4.881-2.245c4.713-2.177 10.393-1.021 13.81 2.803 10.205 11.439 16.022 23.354 17.788 36.436.021.158.021.32.001.479-1.487 12.01-5.199 20.162-11.677 25.651a29.454 29.454 0 01-2.056 1.59 1.86 1.86 0 01-1.842.172c-13.533-6.149-22.177-15.548-28.766-31.674-2.159 8.324-7.045 15.998-14.178 22.105-9.56 8.183-21.969 12.692-34.622 12.692z" fill="#2C2F3D"/><path d="M422.8 216.567l2.439-6.939a9.98 9.98 0 00-.964-8.617l-1.75-2.783a9.118 9.118 0 01-1.09-7.183l.337-1.272c.404-1.52 2.404-1.865 3.29-.566l8.55 12.527a5.413 5.413 0 01.751 4.469l-3.74 13.805-7.823-3.441z" fill="#FFB78A"/><path d="M430.62 220.359a.356.356 0 01-.338-.444l3.742-13.803a5.053 5.053 0 00-.703-4.18l-8.55-12.526a1.468 1.468 0 00-1.478-.626 1.467 1.467 0 00-1.183 1.082l-.338 1.273a8.78 8.78 0 001.05 6.906l1.748 2.785a10.271 10.271 0 01.998 8.919l-2.439 6.938a.35.35 0 11-.662-.232l2.439-6.94a9.565 9.565 0 00-.93-8.312l-1.749-2.785a9.487 9.487 0 01-1.133-7.459l.339-1.273a2.159 2.159 0 011.742-1.595 2.17 2.17 0 012.174.922l8.55 12.528a5.758 5.758 0 01.802 4.758l-3.741 13.804a.353.353 0 01-.34.26z" fill="#390075"/><path d="M428.101 210.018l-2.285-1.089a10.268 10.268 0 00-1.248-8.103l-1.748-2.785a8.785 8.785 0 01-1.05-6.906l.339-1.273a1.465 1.465 0 011.182-1.082 1.472 1.472 0 011.478.626l.114.168-.211.799a9.144 9.144 0 001.089 7.187l1.753 2.785a9.96 9.96 0 01.958 8.613l-.371 1.061v-.001z" fill="#FFDFCA"/><path d="M425.818 208.929l-.316-.153-.008-.002a9.982 9.982 0 00-1.217-7.763l-1.753-2.785a9.12 9.12 0 01-1.09-7.179l.338-1.27a1.827 1.827 0 011.783-1.368c.536 0 1.074.23 1.446.719l-.115.446-.115-.169a1.472 1.472 0 00-1.477-.626 1.465 1.465 0 00-1.183 1.083l-.339 1.273a8.79 8.79 0 001.05 6.906l1.748 2.785a10.263 10.263 0 011.248 8.103z" fill="#A68CC1"/><path d="M430.622 221.872a1.867 1.867 0 01-1.799-2.353l3.741-13.803a3.537 3.537 0 00-.492-2.93l-8.549-12.527-.289 1.265a7.27 7.27 0 00.866 5.711l1.75 2.785a11.784 11.784 0 011.145 10.228l-2.439 6.939a1.867 1.867 0 01-2.376 1.14 1.867 1.867 0 01-1.138-2.378l2.44-6.94a8.078 8.078 0 00-.783-7.004l-1.751-2.785a11 11 0 01-1.313-8.654l.337-1.272a3.661 3.661 0 012.947-2.699 3.654 3.654 0 013.68 1.561l8.549 12.526a7.269 7.269 0 011.012 6.011l-3.741 13.801a1.864 1.864 0 01-1.797 1.378z" fill="#2C2F3D"/><path d="M413.298 227.772c-4.084 9.375 1.395 23.276 1.395 23.276l9.791 40.791h28.506l-19.649-34.457a39.639 39.639 0 01-4.983-15.442c-.592-5.56-.007-11.156 1.476-16.547a60.346 60.346 0 001.992-11.534l-15.116-7.207-6.898 2.177a7.695 7.695 0 00-5.276 8.579l2.383 14.613s5.4-.218 6.694-5.189l1.513-6.811-1.828 7.751z" fill="#FFB78A"/><path d="M424.761 291.488h27.629l-19.353-33.933a39.767 39.767 0 01-5.027-15.578c-.573-5.39-.073-10.999 1.488-16.677a60.271 60.271 0 001.962-11.227l-14.776-7.046-6.765 2.135c-3.455 1.091-5.619 4.611-5.035 8.19l2.331 14.291c1.021-.113 4.253-.713 5.661-3.772.034-.08.067-.16.102-.239l.015-.03c.109-.267.204-.554.283-.859l1.509-6.799a.35.35 0 11.684.154l-1.511 6.809a7.872 7.872 0 01-.33.987l-.008.019-.006.014c-.015.033-.028.067-.042.1-3.885 9.13 1.394 22.755 1.45 22.892l9.739 40.569zm28.231.702h-28.507a.35.35 0 01-.341-.269l-9.789-40.792c-.194-.481-4.609-11.872-2.232-21.007-2.144 2.096-5.148 2.248-5.189 2.249-.17-.009-.332-.119-.359-.295l-2.383-14.612c-.64-3.919 1.733-7.776 5.516-8.971l6.897-2.176a.343.343 0 01.256.018l15.118 7.206c.129.064.209.2.199.343a61.131 61.131 0 01-2.004 11.603c-1.537 5.593-2.031 11.115-1.467 16.416a39.045 39.045 0 004.939 15.304l19.65 34.458a.35.35 0 01-.304.525z" fill="#390075"/><path d="M408.487 229.65c-.377-2.043-.743-4.09-1.07-6.143l-.67-4.107-.334-2.052-.039-.254-.024-.195c-.01-.132-.038-.261-.039-.392-.008-.263-.018-.525.01-.788.14-2.101 1.53-4.069 3.468-4.889.118-.062.247-.092.368-.142.118-.045.242-.092.423-.146l.99-.315.602-.189a7.706 7.706 0 00-2.935 7.371l1.726 10.607a4.786 4.786 0 01-1.316 1.092 6.021 6.021 0 01-1.16.542zm17.846 50.304h-2.785l-2.147-8.945c-.816-3.399-1.635-6.799-2.418-10.206l-2.342-10.223a1.365 1.365 0 00-.059-.198l-.024-.069c-.624-1.697-1.173-3.595-1.646-5.423-.45-1.854-.859-3.717-1.107-5.592-.249-1.873-.429-3.744-.457-5.625.002-.661.023-1.321.065-1.981 1.477-.439 3.491-1.447 4.516-3.75-3.947 9.367 1.469 23.109 1.469 23.109l6.935 28.903z" fill="#FFDFCA"/><path d="M413.864 228.022a31.304 31.304 0 00-.52 5.651c.029 1.881.209 3.753.457 5.626.248 1.874.657 3.738 1.108 5.591.473 1.829 1.021 3.726 1.645 5.423l.025.069c.023.062.044.135.059.199l2.342 10.223c.783 3.406 1.601 6.807 2.418 10.206l4.895 20.393-1.81-1.427h28.506l-1.618 2.789-16.485-28.908-2.061-3.614-1.029-1.807a52.529 52.529 0 01-1.032-1.909 41.398 41.398 0 01-3.1-8.124c-1.497-5.624-1.768-11.525-.96-17.251.203-1.432.474-2.852.812-4.258.162-.69.367-1.43.542-2.069.178-.648.343-1.299.497-1.952.312-1.308.575-2.627.792-3.953.11-.663.209-1.33.293-1.995a2.587 2.587 0 00-.114-1.204 2.737 2.737 0 00-1.132-1.411c-.086-.061-.179-.096-.274-.151l-.469-.224-3.752-1.79-3.753-1.788-1.804-.854a5.628 5.628 0 00-3.058-.377 5.545 5.545 0 00-.761.173l-.971.305-1.982.624-.99.314c-.181.055-.305.102-.423.146-.122.051-.25.081-.368.142-1.938.821-3.328 2.789-3.468 4.89-.028.262-.018.525-.01.788.001.13.029.26.039.391l.024.196.039.254.334 2.052.67 4.107c.436 2.74.941 5.468 1.451 8.195l-2.028-1.658.3-.042c.125-.025.25-.04.379-.073.252-.055.508-.126.753-.207a6.216 6.216 0 001.375-.614c.851-.483 1.471-1.153 1.936-2.009.115-.211.188-.437.304-.655l.303-.941c.207-.634.433-1.266.672-1.892.474-1.258.993-2.505 1.656-3.725a.646.646 0 011.213.27c.083 1.391.024 2.751-.082 4.106a38.71 38.71 0 01-.198 2.021c-.042.34-.077.661-.138 1.014-.104.412-.201.839-.352 1.239-.593 1.592-1.77 3.071-3.219 3.954-.711.472-1.483.797-2.258 1.048a9.628 9.628 0 01-1.184.298c-.198.043-.404.067-.607.099-.223.027-.387.049-.696.061l-.043.003a1.934 1.934 0 01-1.985-1.661c-.385-2.747-.773-5.493-1.229-8.23l-.669-4.107-.335-2.053-.042-.261-.039-.321c-.021-.214-.057-.425-.064-.641a9.949 9.949 0 01.015-1.292 9.547 9.547 0 015.694-8.022c.194-.095.4-.157.6-.234a9.18 9.18 0 01.559-.193l.99-.313 1.983-.626 1.012-.315a9.294 9.294 0 016.351.337c.433.19.687.321 1.014.474l.938.447 3.753 1.788 3.752 1.79.469.224c.209.11.434.217.634.351.418.253.799.562 1.144.902a6.385 6.385 0 011.546 2.462 6.34 6.34 0 01.29 2.898 62.074 62.074 0 01-1.685 8.406c-.19.698-.358 1.296-.512 1.956a41.321 41.321 0 00-.746 3.91c-.742 5.255-.489 10.662.871 15.768a37.69 37.69 0 002.822 7.394c.302.591.614 1.162.944 1.75l1.032 1.807 2.061 3.614 16.484 28.906a1.866 1.866 0 01-1.617 2.79h-28.507c-.878 0-1.614-.61-1.81-1.429l-4.895-20.396c-.814-3.399-1.628-6.8-2.475-10.191l-2.555-10.172.085.266a34.887 34.887 0 01-1.004-2.983c-.3-.986-.558-1.983-.774-2.992a41.329 41.329 0 01-.915-6.137c-.118-2.079-.057-4.189.319-6.268.403-2.072 1.109-4.12 2.27-5.878a.628.628 0 011.143.463l-.008.034h.001z" fill="#2C2F3D"/><path d="M465.006 387.299H301.031c-8.826 0-15.981-7.163-15.981-15.999h195.937c0 8.836-7.155 15.999-15.981 15.999z" fill="#B8C5D3"/><path d="M285.364 371.612c.168 8.506 7.133 15.377 15.668 15.377h163.975c8.539 0 15.502-6.871 15.668-15.377H285.364zm179.643 15.999H301.032c-8.983 0-16.291-7.317-16.291-16.311v-.31h196.558v.31c0 8.994-7.308 16.311-16.292 16.311z" fill="#390075"/><path d="M478.512 375.427h-9.054l.309-2.261h9.237a13.965 13.965 0 01-.492 2.261zm-181.476 0h-9.509a14.07 14.07 0 01-.491-2.261h9.688l.312 2.261z" fill="#F1F3F6"/><path d="M287.034 373.166c.914 6.916 6.842 12.27 13.996 12.27h163.975c7.154 0 13.084-5.354 13.997-12.27H287.034zm177.971 15.999H301.03c-9.838 0-17.843-8.014-17.843-17.865 0-1.029.833-1.864 1.863-1.864h195.936c1.029 0 1.864.835 1.864 1.864 0 9.851-8.005 17.865-17.845 17.865z" fill="#2C2F3D"/><path d="M309.214 387.3h148.063c4.99 0 9.193-3.462 9.78-8.056l11.925-87.219c.695-5.431-3.88-10.206-9.778-10.206H297.289c-5.899 0-10.474 4.775-9.78 10.206l11.928 87.219c.588 4.594 4.788 8.056 9.777 8.056z" fill="#C7D3E3"/><path d="M297.288 282.129c-2.883 0-5.58 1.189-7.4 3.259-1.642 1.865-2.377 4.208-2.071 6.597l11.927 87.217c.568 4.441 4.639 7.787 9.472 7.787h148.061c4.832 0 8.904-3.346 9.471-7.786l11.927-87.22c.305-2.387-.429-4.73-2.069-6.595-1.82-2.07-4.518-3.259-7.402-3.259H297.288zm159.989 105.482H309.216c-5.144 0-9.48-3.58-10.088-8.328l-11.927-87.216c-.328-2.573.46-5.087 2.22-7.088 1.939-2.206 4.806-3.471 7.867-3.471h171.916c3.061 0 5.93 1.265 7.868 3.471 1.759 2.001 2.547 4.515 2.218 7.086l-11.927 87.221c-.606 4.745-4.943 8.325-10.086 8.325z" fill="#390075"/><path d="M305.428 372.087a405.486 405.486 0 01-5.19-.727l-10.88-79.572c-.248-1.939.353-3.849 1.694-5.373 1.526-1.736 3.799-2.733 6.237-2.733h159.119a171.948 171.948 0 01-.759 5.657H304.503c-5.388 0-9.567 4.451-8.933 9.517l9.858 73.231z" fill="#F4F6F9"/><path d="M315.399 387.3h135.693c4.559 0 8.397-3.227 8.935-7.513l10.896-80.93c.634-5.066-3.546-9.518-8.934-9.518H304.502c-5.388 0-9.567 4.452-8.932 9.518l10.894 80.93c.537 4.286 4.375 7.513 8.935 7.513z" fill="#B8C5D3"/><path d="M297.287 283.682c-2.438 0-4.711.997-6.236 2.733-1.342 1.525-1.943 3.434-1.695 5.374l11.924 87.201c.47 3.682 3.881 6.446 7.935 6.446h148.061c4.052 0 7.463-2.764 7.931-6.429l11.929-87.234c.246-1.924-.357-3.833-1.696-5.358-1.527-1.736-3.8-2.733-6.238-2.733H297.287zm159.989 105.482H309.215c-5.922 0-10.922-4.163-11.627-9.684l-11.925-87.201c-.389-3.035.532-5.987 2.591-8.329 2.233-2.54 5.525-3.997 9.033-3.997h171.915c3.507 0 6.799 1.457 9.033 3.997 2.059 2.342 2.98 5.294 2.594 8.312L468.9 379.496c-.705 5.505-5.702 9.668-11.624 9.668z" fill="#2C2F3D"/><path d="M457.277 385.435h-.567c1.79-1.355 3.027-3.349 3.317-5.648l10.896-80.931c.634-5.066-3.546-9.517-8.934-9.517h-6.341c.28-1.85.534-3.742.76-5.657h12.795c2.438 0 4.711.997 6.238 2.733 1.339 1.524 1.942 3.434 1.696 5.358l-11.929 87.234c-.468 3.665-3.879 6.428-7.931 6.428zm-147.497 0h-.564c-4.054 0-7.465-2.763-7.935-6.445l-1.044-7.63c1.745.255 3.476.499 5.19.727l1.037 7.7c.288 2.299 1.527 4.293 3.316 5.648z" fill="#BCACD1"/><path d="M456.711 385.436h-146.93c-1.788-1.355-3.027-3.35-3.315-5.649l-1.037-7.699c14.487 1.938 27.953 2.934 40.41 2.934 63.755 0 100.796-26.11 109.811-85.683h6.34c5.388 0 9.569 4.452 8.935 9.518l-10.897 80.93c-.289 2.299-1.527 4.294-3.316 5.649h-.001z" fill="#928AB7"/><path d="M457.275 387.299H309.214c-4.993 0-9.19-3.461-9.779-8.055l-1.043-8.153v-.005l1.844.274 1.043 7.63c.471 3.682 3.881 6.446 7.935 6.446h148.061c4.053 0 7.463-2.764 7.931-6.429l11.929-87.234c.247-1.924-.357-3.833-1.696-5.358-1.527-1.736-3.8-2.732-6.237-2.732h-12.796c.074-.62.143-1.237.211-1.864h12.589c5.896 0 10.471 4.772 9.777 10.207l-11.931 87.218c-.587 4.594-4.786 8.056-9.777 8.056v-.001z" fill="#2C2F3D"/><path d="M394.136 340.573c-1.391 4.35-5.736 7.524-10.885 7.524-6.271 0-11.35-4.713-11.35-10.527 0-5.809 5.079-10.515 11.35-10.515.527 0 1.045.034 1.555.105a8.193 8.193 0 00-1.555 4.79c0 4.825 4.215 8.735 9.415 8.735a9.09 9.09 0 001.47-.112z" fill="#2C2F3D"/><path d="M388.168 339.621c-2.756-1.391-4.678-4.026-4.896-7.092v-.006l-.002-.032v-.018l-.001-.008-.002-.028v-.006l-.001-.015v-.009l-.001-.011v-.019c-.002-.005-.002-.01-.002-.014v-.014l-.001-.011v-.016l-.002-.014v-.053c0-.008-.003-.013-.003-.02v-.029l-.001-.005v-.031c0-.007 0-.013-.002-.019v-.062l-.001-.026v-.202a8.117 8.117 0 011.148-4.063h.078c.528 0 1.045.035 1.555.104a8.208 8.208 0 00-1.555 4.791c0 2.828 1.443 5.336 3.689 6.928z" fill="#F1F3F6"/><path d="M383.273 332.529v-.005.005zm-.003-.038v-.002.002zm0-.018l-.001-.008.001.008zm-.003-.035v-.006.006zm-.001-.021v-.009.009zm-.001-.021v-.018.018zm-.002-.032v-.015.015zm-.001-.025v-.016.016zm-.002-.03v-.017.017zm0-.026v-.017.017zm0-.028c0-.008-.003-.013-.003-.019 0 .006.003.012.003.019zm-.003-.028v-.02.02zm-.001-.025v-.024.024zm0-.031c0-.007 0-.012-.002-.019a.055.055 0 01.002.019zm-.002-.025v-.025.025zm0-.03v-.02.02zm0-.026l-.001-.027.001.027zm-.001-.03v-.021.021zm0-.028v-.026.026zm0-.029v-.022.022zm0-.028v-.025.025zm0-.025v-.018.018zm0-.028v-.01.01zm0-.02v-.008.008zm0-.02v-.005.005z" fill="#D7CCE3"/><path d="M384.478 348.841c-2.545 0-4.894-.779-6.784-2.091a11.99 11.99 0 005.386 1.345h.1a.342.342 0 00.031.001h.1l.013-.001h.118l.013-.001h.054c.008 0 .015 0 .022-.002h.004c4.682-.105 8.66-2.836 10.283-6.664h.077c.501 0 .994-.036 1.468-.111-1.39 4.348-5.736 7.524-10.884 7.524h-.001z" fill="#F1F3F6"/><path d="M383.282 348.097h.008-.008zm-.061 0h-.011.011zm.09 0l.013-.001-.013.001zm-.132-.001h-.006.006zm.16 0h.013-.013zm-.191 0h-.011.011zm.22 0h.016-.016zm-.258 0h-.017.017zm.287 0h.015-.015zm-.317 0a12.01 12.01 0 01-5.387-1.345l-.004-.004a12.02 12.02 0 005.391 1.349zm.345 0h.016-.016zm.029-.002h.017-.017zm.027 0h.02-.02zm.028 0l.022-.001-.022.001zm.026-.001c4.681-.106 8.657-2.841 10.281-6.665h.001c-1.623 3.828-5.6 6.559-10.282 6.665z" fill="#D7CCE3"/><path d="M354.727 130.912a3.429 3.429 0 01-1.812-.519c-3.669-2.233-3.063-9.942 1.354-17.216 3.599-5.93 8.619-9.744 12.339-9.744.844 0 1.622.199 2.301.612 3.67 2.23 1.157 8.779-3.26 16.057-3.716 6.122-7.599 10.81-10.922 10.81z" fill="#96554E"/><path d="M351.858 157.488a49.51 49.51 0 01-4.231-.182h-.004a1.456 1.456 0 00-.149-.008l-.049-.004c-3.906-.352-7.356-2.159-9.867-4.865 4.204 1.272 8.258 1.979 12.127 1.979 11.777 0 21.84-6.53 29.179-23.493 3.836-11 8.21-15.258 12.92-15.258 2.16 0 4.389.897 6.669 2.447a1.847 1.847 0 00-.357.971c-.703 10.013-5.69 19.464-14.044 26.615-8.886 7.607-20.424 11.797-32.194 11.797v.001z" fill="#722E4C"/><path d="M351.808 159.347c-1.443 0-2.89-.061-4.346-.186-.01 0-.02-.004-.035-.004a.07.07 0 00-.023.004c-.043 0-.095-.008-.149-.008-.336-.035-.672-.07-1.002-.121l-11.86-7.654c1.065.385 2.12.736 3.165 1.052 2.511 2.705 5.961 4.512 9.867 4.864l.049.004c.051 0 .1.003.149.008h.004c1.41.122 2.823.182 4.231.182 11.77 0 23.309-4.191 32.195-11.798 8.353-7.151 13.34-16.602 14.043-26.615a1.85 1.85 0 01.357-.971c.497.338.997.703 1.497 1.1-1.605 22.879-23.92 40.141-48.142 40.143z" fill="#2C2F3D"/><path d="M429.976 154.241c-12.911-6.152-20.972-15.794-27.199-32.651 10.101 8.282 18.423 12.307 24.175 12.307 8.666 0 11.494-9.135 5.796-26.613 4.582 7.393 7.39 15.058 8.52 23.177-1.382 10.892-4.678 18.211-10.356 23.025-.305.259-.616.508-.936.755z" fill="#722E4C"/><path d="M430.185 156.393c-15.548-7.065-23.903-18.594-30.234-37.189.956.832 1.898 1.627 2.826 2.386 6.227 16.858 14.288 26.499 27.198 32.651.321-.246.632-.495.937-.755 5.677-4.814 8.973-12.132 10.355-23.024-1.129-8.119-3.938-15.785-8.52-23.177a108.303 108.303 0 00-2.562-6.993c6.799 8.897 11.412 18.696 12.958 30.157-1.442 11.674-5.114 20.444-12.958 25.944zm-54.264 12.118a14.864 14.864 0 01-1.646-.034 24.42 24.42 0 01-4.595-.738 18.151 18.151 0 01-2.877-1.033 12.822 12.822 0 01-2.532-1.574c1.862.613 3.759.687 5.594.499a21.684 21.684 0 004.026-.836c.416-.13.885-.285 1.205-.433a2.167 2.167 0 012.876 1.067 2.17 2.17 0 01-1.875 3.077l-.176.005z" fill="#2C2F3D"/><path d="M370.482 172.59c.221 4.463 2.948 7.956 6.092 7.799 3.143-.156 5.513-3.901 5.291-8.363-.218-4.463-2.946-7.956-6.09-7.799-3.143.156-5.513 3.898-5.293 8.363z" fill="#2C2F3D"/><path d="M370.792 172.574c.207 4.194 2.692 7.508 5.578 7.508.063 0 .126-.001.187-.004 1.419-.07 2.717-.931 3.663-2.423.966-1.525 1.438-3.52 1.335-5.615-.103-2.093-.772-4.031-1.883-5.456-1.086-1.39-2.452-2.13-3.881-2.047-2.968.146-5.21 3.751-4.999 8.037zm5.581 8.129c-3.216 0-5.977-3.572-6.2-8.099-.228-4.627 2.279-8.524 5.587-8.688 1.649-.076 3.187.731 4.402 2.286 1.189 1.523 1.904 3.585 2.014 5.807.11 2.222-.399 4.347-1.433 5.98-1.054 1.667-2.529 2.629-4.154 2.71a5.22 5.22 0 01-.216.004z" fill="#2C2F3D"/><path d="M375.693 170.218c.064 1.299.858 2.317 1.773 2.271.916-.046 1.605-1.136 1.54-2.435-.063-1.299-.857-2.315-1.773-2.269-.914.044-1.605 1.134-1.54 2.433z" fill="#fff"/><path d="M413.342 158.915c.308.13.764.26 1.166.366.416.112.842.207 1.272.29.86.169 1.735.278 2.621.329 1.77.09 3.588-.09 5.339-.798a12.113 12.113 0 01-2.328 1.684c-.857.46-1.769.861-2.713 1.168a22.926 22.926 0 01-4.396.953c-.522.057-.984.107-1.594.11h-.18a2.135 2.135 0 11.813-4.101v-.001z" fill="#2C2F3D"/><path d="M418.135 166.873c0 4.476-2.448 8.106-5.47 8.106s-5.471-3.63-5.471-8.106c0-4.478 2.449-8.106 5.471-8.106 3.022 0 5.47 3.628 5.47 8.106z" fill="#2C2F3D"/><path d="M412.666 159.077c-2.846 0-5.161 3.498-5.161 7.795 0 4.298 2.315 7.795 5.161 7.795 2.847 0 5.16-3.497 5.16-7.795 0-4.297-2.313-7.795-5.16-7.795zm0 16.213c-3.188 0-5.781-3.777-5.781-8.417 0-4.641 2.593-8.417 5.781-8.417 3.188 0 5.782 3.776 5.782 8.417 0 4.64-2.594 8.417-5.782 8.417z" fill="#2C2F3D"/><path d="M413.025 164.759c0 1.304-.714 2.359-1.593 2.359s-1.593-1.055-1.593-2.359c0-1.303.714-2.361 1.593-2.361s1.593 1.058 1.593 2.361z" fill="#fff"/><path d="M396.874 419.015c-123.696 0-223.966-4.798-223.966-10.72 0-1.456 6.101-2.849 17.146-4.118h30.895a10.026 10.026 0 005.268 1.488h315.217c1.928 0 3.73-.544 5.267-1.488h29.282c11.044 1.269 17.145 2.662 17.145 4.118 0 5.922-72.564 10.72-196.254 10.72z" fill="#C3B2D5"/><path d="M541.436 405.665H226.219c-1.928 0-3.732-.544-5.268-1.488h325.752a10.025 10.025 0 01-5.267 1.488z" fill="#390075"/><path d="M193.212 403.41c7.908-1.19 15.817-1.476 23.726-1.622 7.909-.167 15.818-.078 23.727.012 7.909.07 15.818.088 23.725.077h260.987l11.864-.006 5.93-.054 5.934-.097c7.91-.026 15.818.042 23.728 1.69a.786.786 0 01.607.926.795.795 0 01-.607.608c-7.91 1.646-15.818 1.715-23.728 1.688l-5.934-.095-5.93-.055-11.864-.004H264.39c-7.907-.012-15.816.005-23.725.077-7.909.089-15.818.176-23.727.01-7.909-.146-15.818-.43-23.726-1.621a.776.776 0 010-1.534z" fill="#2C2F3D"/><path d="M80.916 121.423a3.806 3.806 0 01-3.802 3.807 3.805 3.805 0 01-3.801-3.807 3.803 3.803 0 013.801-3.806 3.804 3.804 0 013.802 3.806z" fill="#fff"/><path d="M83.505 173.112a6.393 6.393 0 01-6.39 6.397 6.394 6.394 0 01-6.39-6.397c0-3.535 2.86-6.4 6.39-6.4s6.39 2.865 6.39 6.4z" fill="#65A2EF"/><path d="M128.329 113.183a2.401 2.401 0 01-2.4 2.403 2.401 2.401 0 010-4.804c1.325 0 2.4 1.076 2.4 2.401z" fill="#fff"/><path d="M207.158 35.582a5.274 5.274 0 01-5.271 5.275 5.273 5.273 0 01-5.271-5.275 5.274 5.274 0 015.271-5.277 5.274 5.274 0 015.271 5.277z" fill="#65A2EF"/><path d="M249.473 55.887a3.965 3.965 0 11-7.754-1.658 3.966 3.966 0 014.704-3.052 3.969 3.969 0 013.05 4.71z" fill="#FAB748"/><path d="M666.416 74.257a5.272 5.272 0 11-10.541 0 5.273 5.273 0 015.271-5.276 5.273 5.273 0 015.27 5.276z" fill="#65A2EF"/><path d="M643.164 46.11a3.963 3.963 0 01-4.704 3.052 3.97 3.97 0 011.654-7.761 3.969 3.969 0 013.05 4.71z" fill="#FAB748"/><path d="M705.948 330.714a6.394 6.394 0 01-6.39 6.398 6.394 6.394 0 01-6.392-6.398c0-3.534 2.861-6.4 6.392-6.4 3.529 0 6.39 2.866 6.39 6.4z" fill="#BAD5F5"/><path d="M205.632 382.875a6.394 6.394 0 01-6.39 6.398 6.394 6.394 0 01-6.392-6.398c0-3.534 2.861-6.4 6.392-6.4 3.529 0 6.39 2.866 6.39 6.4z" fill="#fff"/><path d="M23.582 411.28a4.89 4.89 0 01-4.888 4.895 4.891 4.891 0 01-4.888-4.895 4.892 4.892 0 014.888-4.894 4.89 4.89 0 014.888 4.894z" fill="#65A2EF"/><path d="M52.914 430.223a3.963 3.963 0 01-4.704 3.052 3.969 3.969 0 011.656-7.762 3.97 3.97 0 013.048 4.71z" fill="#FAB748"/><path d="M653.211 330.133l-37.783-7.379c-9.933-1.939-19.559 4.551-21.497 14.499l-3.916 20.104c-1.938 9.945 4.546 19.582 14.482 21.523l3.959.772 11.571 17.195 17.174-11.582 5.079.992c9.933 1.939 19.559-4.55 21.497-14.499l3.916-20.104c1.938-9.946-4.546-19.582-14.482-21.522v.001z" fill="#E73842"/><path d="M646.817 353.67a8.382 8.382 0 00.095-3.545c-.654-3.561-3.453-6.452-6.985-7.219-3.801-.826-7.538.889-9.518 3.988-.519-3.641-3.21-6.752-7.011-7.578-4.626-1.004-9.01 1.661-10.319 6.205-1.24 4.304 1.024 8.429 3.457 11.833 2.95 4.13 5.903 8.292 9.054 12.27.253.321 11.548-6.387 12.625-7.017 3.561-2.082 7.55-4.651 8.602-8.937z" fill="#FEFEFE"/><path d="M586.387 255.673l96.333 16.779c9.907 1.727 16.542 11.169 14.819 21.087-1.724 9.92-11.153 16.561-21.062 14.836l-79.389-13.828-16.944-2.952c-9.908-1.727-16.543-11.167-14.817-21.086 1.722-9.919 11.153-16.562 21.06-14.836z" fill="#FAB748"/><path d="M670.47 294.07l-72.779-12.675a.696.696 0 00-.808.567c-.066.381.104.475.485.543l72.779 12.676c.38.065.824.08.891-.301a.704.704 0 00-.568-.81zm-11.944-12.739l-37.399-6.515a.698.698 0 10-.24 1.377l37.401 6.515a.696.696 0 00.806-.57.697.697 0 00-.568-.807zm-44.61-7.771l-29.016-5.054a.696.696 0 00-.806.568.7.7 0 00.568.809l29.016 5.054a.698.698 0 00.238-1.377z" fill="#FEFEFE"/><path d="M527.065 200.342l132.364 22.848c13.615 2.35 22.747 15.304 20.4 28.934-2.346 13.631-15.286 22.774-28.899 20.424l-109.084-18.832-17.367 11.101 2.36-13.691-8.273-1.428c-13.614-2.35-22.747-15.306-20.4-28.934 2.348-13.63 15.286-22.773 28.899-20.422z" fill="#928AB7"/><path d="M636.484 231.406l-94.845-16.374a.7.7 0 10-.237 1.379l94.846 16.372a.699.699 0 10.236-1.377zm-32.822 17.276l-51.145-8.83a.7.7 0 00-.237 1.379l51.145 8.829a.696.696 0 00.807-.569.701.701 0 00-.569-.809h-.001zm21.325-7.064l-48.852-8.434a.699.699 0 00-.238 1.378l48.853 8.433a.7.7 0 00.237-1.377zm-56.122-9.688l-29.265-5.053a.698.698 0 00-.237 1.378l29.264 5.053a.7.7 0 00.238-1.378z" fill="#FEFEFE"/><path d="M690.672 232.26c0 11.235-9.097 20.345-20.322 20.345-11.222 0-20.32-9.11-20.32-20.345 0-11.238 9.098-20.346 20.32-20.346 11.225 0 20.322 9.108 20.322 20.346z" fill="#E73842"/><path d="M668.148 241.231l4.044.686 3.178-18.777-2.794-.475-5.617.692.284 3.499 3.38-.248-2.475 14.623z" fill="#FEFEFE"/><path d="M582.737 189.621l-52.861-10.137c-4.518-.866-7.458-5.336-6.568-9.984l21.599-112.897c.889-4.647 5.271-7.712 9.788-6.848l52.862 10.138c4.517.866 7.457 5.336 6.567 9.985l-21.599 112.895c-.889 4.649-5.271 7.715-9.788 6.848z" fill="#302E33"/><path d="M584.084 182.63l-52.862-10.137c-4.517-.867-7.469-5.276-6.594-9.85L545.88 51.558c.876-4.573 5.246-7.578 9.763-6.712l52.863 10.138c4.515.866 7.468 5.275 6.593 9.849l-21.253 111.084c-.874 4.574-5.245 7.579-9.762 6.713z" fill="#2C2F3D"/><path d="M553.878 167.54l-.225-.044a5.834 5.834 0 005.731 6.942 5.833 5.833 0 005.825-5.843 5.84 5.84 0 00-5.836-5.832 5.835 5.835 0 00-5.72 4.733l.225.044.222.043a5.378 5.378 0 016.295-4.267 5.382 5.382 0 014.261 6.303 5.379 5.379 0 01-6.294 4.266 5.382 5.382 0 01-4.262-6.302l-.222-.043zm19.904-110.835l-.043.224 14.395 2.776a1.11 1.11 0 001.3-.88l.02-.106a1.111 1.111 0 00-.88-1.302l-14.395-2.777a1.11 1.11 0 00-1.3.882l-.021.106a1.112 1.112 0 00.881 1.302l.043-.225.043-.223a.657.657 0 01-.52-.768l.021-.106a.654.654 0 01.767-.52l14.395 2.777a.657.657 0 01.52.768l-.019.105h-.002a.655.655 0 01-.767.52l-14.395-2.776-.043.223zm17.401 105.748l-59.085-11.345c-.763-.146-1.29-.757-1.174-1.364l17.728-92.794c.115-.606.829-.98 1.593-.833L609.33 67.46c.765.147 1.29.758 1.174 1.366l-17.727 92.794c-.116.606-.83.979-1.594.833z" fill="#FEFEFE"/><path d="M607.148 70.783l-5.843-1.127a.174.174 0 01-.138-.203l.102-.53a.173.173 0 01.203-.138l5.844 1.127a.173.173 0 01.137.203l-.102.531a.173.173 0 01-.203.137zm-.253 1.311l-5.843-1.127a.172.172 0 01-.137-.203l.101-.53a.174.174 0 01.204-.138l5.843 1.127c.094.018.156.11.138.203l-.103.531a.172.172 0 01-.203.137zm-.277 1.422l-5.842-1.127a.175.175 0 01-.139-.203l.103-.531a.175.175 0 01.204-.138l5.842 1.127c.094.018.155.11.137.204l-.101.53a.174.174 0 01-.204.138z" fill="#D4D1D1"/><path d="M558.229 64.16a4.13 4.13 0 01-4.836 3.277 4.133 4.133 0 01-3.272-4.841 4.128 4.128 0 118.108 1.563z" fill="#E73842"/><path d="M556.204 63.77a2.067 2.067 0 01-2.419 1.64 2.068 2.068 0 01-1.637-2.422 2.064 2.064 0 012.418-1.639 2.068 2.068 0 011.638 2.422z" fill="#FEFEFE"/><path d="M579.259 123.667l1.153 36.761 12.094 2.332 3.302-17.163-.118-3.362-16.431-18.568z" fill="#FAC8A7"/><path d="M579.9 144.151l-.358-.209.353.029.005.18zm-.358-.209v-.003.003zm0-.003v-.006.006zm0-.006l-.001-.005.001.005zm-.001-.005v-.003.003zm0-.003v-.005.005zm0-.005v-.012.012zm0-.012l-.001-.005.001.005zm-.001-.005v-.008.008zm0-.008v-.006.006zm0-.006v-.01.01zm0-.01v-.001.001zm0-.001l-.002-.004.002.004zm-.002-.004v-.01.01zm0-.01v-.015.015zm0-.015v-.002.002zm0-.002h-.001.001zm-.001 0v-.007.007zm0-.007v-.018.018zm0-.018l-.001-.009.001.009zm-.001-.009v-.004.004zm0-.004v-.006.006zm0-.006v-.008.008zm0-.008l-.033-.66.033.66z" fill="#FDF0F0"/><path d="M594.448 152.658l-14.549-8.508-.005-.18 15.866 1.316c.011.131.021.262.03.394l-1.342 6.977v.001z" fill="#F8BE9F"/><path d="M596.039 144.394l-3.418-21.038c-.029-4.61-3.6-8.789-8.675-9.769l-20.385-3.931a18.037 18.037 0 00-3.457-.328l-18.857-3.562-2.996 15.573 5.776 1.113-8.49 29.322 50.321 9.705 3.079-16.955 6.985.481.117-.611z" fill="#FAB748"/><path d="M580.848 72.57s-2.933-2.995-7.484-6.052c-5.38-3.617-14.126-2.79-14.524 6.29-1.965 1.865-3.228 5.277-.609 11.501l-.544 2.488c-.508 2.314.9 4.59 3.142 5.082l16.781 3.685c2.242.493 4.472-.985 4.979-3.3l.951-4.339c10.493-14.674-2.692-15.355-2.692-15.355z" fill="#8A423A"/><path d="M581.941 75.102l.032.014c.169.08.973.488 1.722 1.247.752.76 1.445 1.859 1.446 3.353 0 .558-.096 1.173-.328 1.851a.228.228 0 00.431.148 6.202 6.202 0 00.352-1.999c0-1.752-.877-3.02-1.739-3.831a6.844 6.844 0 00-1.732-1.2.227.227 0 00-.183.416l-.001.001z" fill="#FEFEFE"/><path d="M582.871 88.838l-3.907.894s2.279-3.966-.764-8.94c0 0-13.107 3.302-17.758-2.146l-3.385 15.45a8.157 8.157 0 00.848 5.727 8.28 8.28 0 004.561 4.777l-1.21 6.289c-.641 3.33 1.634 6.594 5.053 7.253l1.962.379c3.42.66 6.742-1.525 7.384-4.855l1.762-9.157a8.255 8.255 0 002.575-4.398l.588-2.683.391.086a4.328 4.328 0 005.139-3.295l.052-.234a4.334 4.334 0 00-3.291-5.147z" fill="#FAC8A7"/><path d="M577.238 105.429l.177-.92a8.24 8.24 0 002.538-4.232 8.244 8.244 0 01-2.276 3.995 6.054 6.054 0 01-.439 1.157zm-14.774-.822a8.285 8.285 0 01-4.551-4.76 8.277 8.277 0 004.552 4.753l-.001.007zm17.489-4.332l.004-.018-.004.018zm.005-.022l.003-.014-.003.014zm.005-.02l.003-.014-.003.014zm.004-.023c.002-.002.003-.006.004-.01-.001.004-.002.008-.004.01zm.005-.019l.003-.011-.003.011zm.006-.021l.001-.008-.001.008zm.003-.02c.002-.002.002-.006.003-.009-.001.003-.001.007-.003.009zm.004-.019a.073.073 0 00.005-.02l.588-2.683-.588 2.683a.073.073 0 01-.005.02zm-22.072-.283l-.005-.012a.056.056 0 01.005.012z" fill="#FBE0DD"/><path d="M571.734 108.853c-.063 0-.127 0-.191-.002l-1.966-.062c-2.435-.074-4.501-1.578-5.434-3.675l-.247-.055a8.287 8.287 0 01-1.431-.453l.002-.006a8.28 8.28 0 01-4.557-4.765l-.004-.013a8.147 8.147 0 005.384 4.02l6.234 1.368a8.096 8.096 0 001.758.192 8.178 8.178 0 007.976-6.431l.417-1.903.905.36-.587 2.683c-.002.006-.003.013-.006.019l-.001.011-.002.009-.003.012-.001.007a.026.026 0 00-.003.011l-.002.01-.002.01-.004.01-.001.009-.003.013-.002.007a.04.04 0 01-.003.014l-.001.004-.004.018v.001a8.24 8.24 0 01-2.538 4.233l-.177.919c-1.014 2.033-3.113 3.427-5.505 3.425h-.001z" fill="#F6B49B"/><path d="M583.352 91.232L581.364 93a.226.226 0 00.006.345l1.529 1.266a.228.228 0 10.291-.351l-1.326-1.096 1.789-1.59a.227.227 0 10-.301-.34z" fill="#F1907B"/><path d="M573.367 86.776c-.304-.008-.617-.19-.928-.347a16.456 16.456 0 00-.907-.454 16.92 16.92 0 00-.936-.394c-.323-.135-.667-.255-.865-.478-.194-.212-.158-.549.292-.777.427-.226 1.3-.283 2.23.14.925.43 1.438 1.125 1.536 1.594.108.483-.133.726-.422.716zm-13.265-.795c.256.152.616.183.962.23.35.042.701.091 1.004.144.304.052.652.122.994.2.344.07.695.162.983.103.276-.052.429-.315.178-.713-.233-.386-.93-.882-1.936-1.056-1.004-.171-1.812.066-2.147.354-.354.295-.285.595-.038.739zm10.139 4.202l.027.005a.5.5 0 00.594-.38l.138-.634a.5.5 0 00-.379-.595l-.027-.007a.5.5 0 00-.594.381l-.14.635a.5.5 0 00.381.595z" fill="#2C2F3D"/><path d="M566.832 83.71l-.781 4.06a.835.835 0 01-.977.663 1.032 1.032 0 00-1.209.82l-.205 1.058a1.081 1.081 0 00.857 1.266l2.586.499a.227.227 0 00.086-.448l-2.586-.498a.629.629 0 01-.508-.614l.012-.12.204-1.058a.577.577 0 01.566-.468l.11.01a1.29 1.29 0 001.51-1.024l.781-4.06a.227.227 0 00-.446-.086z" fill="#F1907B"/><path d="M561.605 88.502l.027.006a.502.502 0 00.595-.38l.139-.635a.5.5 0 00-.38-.595l-.028-.006a.501.501 0 00-.594.38l-.14.636a.501.501 0 00.381.594z" fill="#2C2F3D"/><path d="M572.391 92.766a.497.497 0 01-.087-.007l-1.776-.255a.62.62 0 01-.524-.7l.005-.033a.62.62 0 01.7-.525l1.776.256a.619.619 0 01.522.7l-.005.034a.62.62 0 01-.611.53zm-11.692-2.216a.668.668 0 01-.088-.007l-1.776-.255a.62.62 0 01-.524-.7l.005-.035a.621.621 0 01.7-.523l1.776.256a.62.62 0 01.523.699l-.006.034a.62.62 0 01-.611.53h.001z" fill="#F8BE9F"/><path d="M565.824 99.249c-.019-.012-.503-.382-1.188-.386-.314 0-.67.084-1.014.32a.227.227 0 00-.058.316c.071.105.212.13.316.06a1.3 1.3 0 01.756-.241c.255 0 .489.074.657.15.083.038.151.076.195.103l.051.033.01.009h.002a.228.228 0 00.273-.364z" fill="#F1907B"/><path d="M565.283 93.885l6.631-.47-.775 1.615c-.495 1.035-1.882 1.706-3.421 1.658-1.2-.038-2.186-.713-2.288-1.567l-.147-1.236z" fill="#FEFEFE"/><path d="M552.737 81.798zm6.545-8.523a1.407 1.407 0 00-1.029-.413 1.524 1.524 0 00-1.052.444l-4.058 4.025c-3.44-5.375-9.047.377-9.047.377l-3.232 3.453-24.683 21.849a8.392 8.392 0 00-2.618 4.664c-.013.064-.033.125-.045.189-.018.091-.025.183-.039.274l-.002.018c-.714 4.529 2.276 8.843 6.807 9.717l17.968 3.466 2.996-15.573-5.629-1.11.012-.019 10.794-14.755-.029-.046c.343-.336 1.357-1.205 3.075-1.656 2.747-.722 3.938-3.156 3.938-3.156 1.583-.703 3.254-1.185 4.852-1.851.166-.07.342-.149.44-.3.108-.17.092-.391.044-.587-.28-1.14-1.362-1.688-2.458-1.612-.642.044-1.265.214-1.868.43-.287.104-1.22.332-1.57.583l6.384-6.328c.584-.582.608-1.518.049-2.083z" fill="#FAC8A7"/><path d="M525.204 118.82s4.486-5.517 7.447-10.11l2.98-4.074-.012.019.091.018.008.001 1.871.369c.303.062.745.15 1.484.293l-13.869 13.484z" fill="#F8BE9F"/><path d="M553.349 80.873l-1.909 1.947a.228.228 0 00.325.318l1.908-1.945a.23.23 0 00-.002-.322.227.227 0 00-.322.002z" fill="#F1907B"/><path d="M560.709 143.696c-.869 4.516-5.229 7.471-9.739 6.601-4.51-.87-7.461-5.235-6.593-9.75.869-4.515 5.229-7.47 9.739-6.6 4.51.869 7.462 5.235 6.593 9.749z" fill="#FEFEFE"/><path d="M560.709 143.696l-.446-.086a7.868 7.868 0 01-7.71 6.384c-.494 0-.994-.047-1.497-.145-3.761-.724-6.376-4.023-6.376-7.718 0-.495.047-.996.144-1.499a7.866 7.866 0 019.206-6.24c3.761.725 6.376 4.024 6.376 7.72 0 .493-.047.994-.143 1.498l.446.086.446.086c.108-.56.16-1.119.16-1.67 0-4.126-2.917-7.803-7.113-8.613a8.785 8.785 0 00-1.667-.16 8.776 8.776 0 00-8.604 7.121 8.826 8.826 0 00-.16 1.671c0 4.126 2.917 7.803 7.113 8.613a8.89 8.89 0 001.669.161 8.776 8.776 0 008.602-7.123l-.446-.086z" fill="#D4D1D1"/><path d="M555.103 145.619l-.266.179a.506.506 0 01-.701-.135l-4.286-6.338a.507.507 0 01.136-.702l.264-.18a.505.505 0 01.702.136l4.285 6.337a.509.509 0 01-.134.703z" fill="#E84159"/><path d="M549.049 144.684l-.18-.267a.505.505 0 01.136-.701l6.33-4.291a.506.506 0 01.702.135l.178.265a.507.507 0 01-.134.703l-6.331 4.291a.508.508 0 01-.701-.135z" fill="#E84159"/><path d="M583.603 148.111c-.869 4.516-5.229 7.471-9.739 6.601-4.51-.87-7.461-5.235-6.593-9.749.869-4.516 5.229-7.471 9.739-6.601 4.51.87 7.462 5.235 6.593 9.749z" fill="#FEFEFE"/><path d="M583.601 148.11l-.446-.086a7.866 7.866 0 01-7.711 6.385c-.493 0-.993-.047-1.496-.145-3.761-.724-6.376-4.024-6.376-7.719 0-.493.047-.994.144-1.497a7.865 7.865 0 019.206-6.241c3.761.725 6.376 4.025 6.376 7.72 0 .493-.047.994-.143 1.497l.446.086.446.087c.108-.56.16-1.12.16-1.67 0-4.127-2.917-7.802-7.113-8.613a8.775 8.775 0 00-10.271 6.962 8.806 8.806 0 00-.16 1.669c0 4.127 2.917 7.804 7.113 8.614.56.108 1.118.16 1.668.16a8.775 8.775 0 008.603-7.122l-.446-.087z" fill="#D4D1D1"/><path d="M580.43 146.5a2.27 2.27 0 00.002-.961 2.478 2.478 0 00-1.939-1.913 2.447 2.447 0 00-2.555 1.141 2.448 2.448 0 00-1.948-2.01c-1.261-.243-2.433.507-2.759 1.748-.309 1.175.331 2.278 1.012 3.186.825 1.101 1.652 2.211 2.532 3.269.071.085 3.091-1.804 3.379-1.983.952-.585 2.017-1.308 2.276-2.477z" fill="#65A2EF"/><path d="M124.764 268.558l51.374-10.175c4.389-.87 7.224-5.236 6.331-9.753L160.79 138.914c-.892-4.516-5.174-7.473-9.563-6.603l-51.373 10.175c-4.39.868-7.225 5.235-6.332 9.752L115.2 261.953c.892 4.517 5.174 7.474 9.563 6.605z" fill="#302E33"/><path d="M123.414 261.763l51.373-10.174c4.39-.87 7.237-5.177 6.357-9.622l-21.329-107.955c-.878-4.444-5.149-7.342-9.538-6.472l-51.374 10.173c-4.389.87-7.235 5.177-6.357 9.622l21.331 107.955c.878 4.445 5.149 7.343 9.538 6.473h-.001z" fill="#2C2F3D"/><path d="M152.713 246.904l-.216.043a5.234 5.234 0 01-5.136 6.258 5.234 5.234 0 01-5.225-5.242 5.237 5.237 0 015.237-5.232 5.235 5.235 0 015.124 4.216l.216-.043.216-.043a5.674 5.674 0 00-5.556-4.573 5.677 5.677 0 00-5.569 6.789 5.676 5.676 0 005.557 4.571 5.677 5.677 0 005.568-6.787l-.216.043zm-20.014-107.719l-.043-.218-13.991 2.787a.638.638 0 01-.75-.502l-.001-.005-.02-.098v-.005.005a.638.638 0 01.502-.75l13.99-2.786a.64.64 0 01.75.501l.02.103a.639.639 0 01-.5.75l.043.218.043.216a1.081 1.081 0 00.848-1.27l-.021-.103a1.076 1.076 0 00-1.269-.849l-13.99 2.786a1.08 1.08 0 00-.85 1.271l.021.102a1.082 1.082 0 001.27.851l13.991-2.788-.043-.216zm-16.312 102.989l57.42-11.385c.742-.147 1.25-.746 1.133-1.336l-17.792-90.178c-.117-.591-.812-.95-1.555-.803l-57.42 11.385c-.744.148-1.25.745-1.135 1.336l17.793 90.179c.116.591.813.949 1.556.802z" fill="#FEFEFE"/><path d="M155.063 142.176l-5.679 1.13a.167.167 0 01-.198-.133l-.103-.515a.172.172 0 01.133-.2l5.679-1.13a.169.169 0 01.199.133l.102.516a.17.17 0 01-.133.199zm.251 1.274l-5.677 1.131a.17.17 0 01-.199-.133l-.103-.516a.17.17 0 01.134-.199l5.677-1.131a.17.17 0 01.2.133l.103.515a.171.171 0 01-.135.2zm.276 1.382l-5.679 1.131a.17.17 0 01-.198-.133l-.103-.515a.17.17 0 01.133-.2l5.679-1.13a.169.169 0 01.199.133l.102.515a.17.17 0 01-.133.199z" fill="#D4D1D1"/><path d="M108.553 154.176a4.017 4.017 0 11-7.879 1.57 4.016 4.016 0 117.879-1.57z" fill="#FAB748"/><path d="M106.586 154.569a2.008 2.008 0 11-3.94.785 2.008 2.008 0 113.94-.785z" fill="#FEFEFE"/><path d="M112.687 190.415c.267-1.78 1.972-5.303 2.862-6.725 2.266-3.619 3.756-7.673 3.933-11.945l.024-.579a14.249 14.249 0 012.68-7.763c.878-1.219 1.777-2.346 2.945-3.307a14.332 14.332 0 011.827-1.276c.204-.119.484-.171.525-.426.04-.266-.326-.741-.433-.979-.509-1.141-.277-2.386.219-3.489.775-1.724 2.133-2.791 3.031-2.385.496.223.747.846.744 1.647.607-.169 1.26-.287 1.945-.338 3.441-.255 6.355 1.222 6.51 3.303.025.339-.032.671-.148.995.049.017.075.038.063.06a14.277 14.277 0 0110.819 13.229l.026.581c.191 4.271 1.696 8.318 3.973 11.93.895 1.419 2.612 4.937 2.884 6.716 2.831 18.479-13.419 19.205-18.913 19.453a10.04 10.04 0 01-2.148-.138 9.874 9.874 0 01-4.388.824c-5.494-.228-21.747-.899-18.98-19.388z" fill="#E73842"/><path d="M147.07 172.382l-2.044.135c-1.948.129-3.657-1.03-4.144-2.687l-1.81-6.199.028.408c.353 5.368-3.709 10.007-9.071 10.361l-3.541.233.057.611-.244.022a3.892 3.892 0 00-3.5 4.225 3.888 3.888 0 004.218 3.504l.254-.023a10.001 10.001 0 002.856 5.784c-.03.325-.034.657-.004.994l.726 7.966c.276 3.034 2.98 5.289 6.011 5.013 3.028-.277 5.282-2.984 5.006-6.018l-.538-5.913a10.048 10.048 0 004.573-4.158 9.899 9.899 0 001.862-6.769l-.695-7.489z" fill="#FAC8A7"/><path d="M128.519 186.656a9.967 9.967 0 01-1.247-3.684h.003a9.987 9.987 0 001.244 3.684z" fill="#E95055"/><path d="M135.809 193.81c-.168 0-.338-.008-.509-.024-2.629-.245-4.669-2.32-4.978-4.848a9.987 9.987 0 01-3.047-5.967h-.003c-.013-.096.434-.37.692-.37.089 0 .155.034.172.119a9.942 9.942 0 008.37 7.92c.157.99.434 2.013.757 2.972a5.445 5.445 0 01-1.454.198zm9.916-6.879l-.007-.038a7.96 7.96 0 00.139-.182l-.132.22z" fill="#F6B49B"/><path d="M125.208 177.58l1.364 1.551-1.245.795a.221.221 0 00.238.373l1.462-.934a.223.223 0 00.047-.333l-1.535-1.745a.22.22 0 00-.312-.02.222.222 0 00-.019.313z" fill="#F1907B"/><path d="M127.3 182.406a1.49 1.49 0 11-2.965.272 1.491 1.491 0 011.347-1.621 1.491 1.491 0 011.618 1.349z" fill="#FEFEFE"/><path d="M135.917 178.186a.448.448 0 01-.487-.404l-.05-.543a.447.447 0 01.892-.082l.049.542a.446.446 0 01-.404.487z" fill="#302E33"/><path d="M133.932 180.819a.719.719 0 01-.716-.702.72.72 0 01.703-.73l1.983-.039h.014a.716.716 0 01.013 1.432l-1.983.039h-.014zm10.253-.805a.718.718 0 01-.715-.702.717.717 0 01.701-.729l1.985-.041h.013a.717.717 0 01.014 1.433l-1.983.039h-.015z" fill="#F6B49B"/><path d="M143.817 177.684a.452.452 0 01-.489-.404l-.049-.543a.448.448 0 01.891-.082l.051.541a.45.45 0 01-.404.488z" fill="#302E33"/><path d="M138.531 177.225l-.221.02a3.193 3.193 0 01-3.178 3.482 3.191 3.191 0 01-3.186-3.197 3.19 3.19 0 013.194-3.187 3.188 3.188 0 013.17 2.902l.221-.02.22-.021a3.633 3.633 0 00-3.945-3.289 3.632 3.632 0 00-3.287 3.949 3.632 3.632 0 003.946 3.291 3.633 3.633 0 003.286-3.951l-.22.021zm9.259-.846l-.22.02a3.192 3.192 0 01-3.18 3.482 3.19 3.19 0 01-3.184-3.196 3.19 3.19 0 013.192-3.188 3.191 3.191 0 013.172 2.902l.22-.02.221-.02a3.634 3.634 0 00-3.946-3.29 3.633 3.633 0 00-3.286 3.951 3.633 3.633 0 003.945 3.289 3.633 3.633 0 003.287-3.95l-.221.02z" fill="#FEFEFE"/><path d="M138.087 185.895l-.044-.046.044.047v-.001l-.044-.046.044.047c.007-.011.403-.365.889-.359.163 0 .338.034.529.133a.22.22 0 00.297-.095.219.219 0 00-.095-.299 1.58 1.58 0 00-.731-.182c-.713.006-1.176.469-1.196.482a.222.222 0 00-.005.313.22.22 0 00.312.006zm-2.765-7.288a1.19 1.19 0 01.665-.188c.171 0 .369.032.591.128a.165.165 0 00.218-.087.166.166 0 00-.086-.218 1.813 1.813 0 00-.723-.156c-.524.001-.848.244-.864.254a.167.167 0 00-.033.234.164.164 0 00.232.032v.001zm7.86-.5c.019-.013.275-.189.666-.189.171 0 .368.032.591.129a.166.166 0 00.217-.087.164.164 0 00-.086-.218 1.775 1.775 0 00-.722-.156c-.524 0-.848.243-.865.255a.166.166 0 00.199.266zm-4.277-3.523l.372 2.193c.058.332.247.613.506.804.258.193.586.3.935.301.095 0 .193-.007.29-.024l-.037-.219-.031.219.018.004.074.014.033.009.009.003.009-.025-.012.023.003.002.009-.025-.012.023c.076.033.163.182.204.345.02.078.032.155.04.211l.007.067.001.019v.014l.002.015.011.117c.001.245-.134.504-.373.72a1.807 1.807 0 01-.903.437l-1.173.201a.222.222 0 00.074.437l1.174-.201c.423-.073.822-.27 1.126-.545.301-.275.515-.639.516-1.049a1.22 1.22 0 00-.015-.191l-.219.037.221-.009c0-.01-.006-.184-.062-.395-.06-.207-.158-.473-.425-.622-.074-.037-.129-.046-.182-.058-.051-.01-.09-.015-.094-.017l-.034-.003-.034.005a1.44 1.44 0 01-.215.018 1.13 1.13 0 01-.672-.213.83.83 0 01-.332-.525l-.374-2.192a.224.224 0 00-.255-.181.222.222 0 00-.18.256z" fill="#F1907B"/><path d="M138.652 176.996l-.056-.046.055.047.001-.001-.056-.046.055.047a1.54 1.54 0 011.136-.497c.298 0 .659.08 1.09.322l.217-.386c-.486-.274-.928-.379-1.307-.379-.476 0-.847.164-1.095.326-.247.163-.376.325-.387.338l.347.275zm-12.166-1.54l5.276 1.495.122-.425-5.278-1.495-.12.425z" fill="#FEFEFE"/><path d="M133.597 175.989c.241.016.502-.108.761-.211a12.809 12.809 0 011.522-.547c.266-.085.547-.155.721-.32.168-.155.162-.425-.179-.636-.324-.21-1.014-.316-1.78-.043-.765.276-1.221.794-1.33 1.158-.12.377.055.586.285.599zm11.563-1.31c-.165.07-.382.048-.59.039a10.172 10.172 0 00-1.212-.008c-.21.007-.425.025-.589-.047-.158-.068-.22-.261-.033-.496.179-.228.64-.474 1.25-.472.61.005 1.061.259 1.228.489.178.238.108.428-.054.495z" fill="#E73842"/><path d="M138.797 184.662l-1.587-.132a2.023 2.023 0 01-1.848-2.184l.093-1.113 4.283.355-.203 2.449a.684.684 0 01-.738.625z" fill="#FEFEFE"/><path d="M163.273 220.838a8.141 8.141 0 00-.581-7.711l-6.599-10.296c-1.534-7.712-6.053-9.317-13.756-7.783l.014.214c.399 5.679-6.85 8.37-10.246 3.803l-1.282-1.724-5.26 1.049c-3.769.75-6.504 3.76-7.103 7.341h-.01l-3.398 21.734.33-.025 6.692-.501 2.704 13.615 38.003-7.567-1.023-8.756 1.515-3.393z" fill="#65A2EF"/><path d="M115.38 227.44l-.42 14.321.143.72 14.665-2.92.335-13.223-14.723 1.102z" fill="#FAC8A7"/><path d="M115.159 234.985v-.001.001zm.093-3.18c-.01-1.432-.042-2.859.084-4.314.015 0 .029-.002.042-.003l-.126 4.317z" fill="#FDF0F0"/><path d="M129.972 226.348c.026-.181.106-.717.14-.717.019 0 .025.177-.007.707l-.133.01z" fill="#6E6BAE"/><path d="M115.159 234.985v-.001c.093-1.071.099-2.126.093-3.179l.126-4.317 14.584-1.082.008-.058.133-.01-14.944 8.647z" fill="#F8BE9F"/><path d="M141.8 198.202c.088-.481.112-.981.067-1.491l-.538-5.911a10.065 10.065 0 004.394-3.859c.217 1.497.31 3.472.668 4.531 0 0 .104-.015.272-.015.606 0 2.036.2 2.349 2.056.078.462.196.869.327 1.22a12.339 12.339 0 00-2.357-.21c-1.395 0-2.944.187-4.648.526l.015.214c.076 1.103-.133 2.093-.549 2.939z" fill="#E95055"/><path d="M140.899 199.512a10.315 10.315 0 01-2.887-3.912 29.768 29.768 0 01-.75-1.988 5.583 5.583 0 003.281-2.496c.269-.094.531-.2.787-.316l.538 5.911c.046.51.021 1.01-.066 1.491a5.443 5.443 0 01-.903 1.31zm-3.031-8.777c-.462 0-.916-.031-1.363-.094-.233-1.487-.188-2.903.41-3.931a1.66 1.66 0 01.958-.76.224.224 0 00.21-.051 1.749 1.749 0 01.414-.022 1.326 1.326 0 01-.026-.226c.14-.064.31-.113.492-.113h.012c.163 0 .337.034.529.133a.238.238 0 00.1.025.221.221 0 00.102-.419 1.575 1.575 0 00-.729-.183h-.002a1.62 1.62 0 00-.401.054 1.162 1.162 0 01.409-.496.69.69 0 00.276-.123c.143-.04.301-.06.464-.06.513 0 1.074.193 1.343.517l2.439 3.048c-.05-.299.032-.477.039-.781.019-.929.241-1.848 1.219-1.998.055-.008.109-.014.166-.014.117 0 .233.024.324.094.12.094.173.249.219.394.1.32.178.72.245 1.165a9.898 9.898 0 01-7.849 3.841zm4.592-.536a10.095 10.095 0 003.263-3.267l.001.009a10.07 10.07 0 01-3.264 3.258z" fill="#F6B49B"/><path d="M141.329 190.8v-.001a9.814 9.814 0 000 .001z" fill="#EB5F61"/><path d="M137.261 193.612c-.323-.959-.6-1.982-.756-2.972a10.042 10.042 0 002.292.051 9.892 9.892 0 006.919-3.798l.007.038a10.098 10.098 0 01-3.264 3.267c-.36.223-.738.424-1.129.6v.001a9.784 9.784 0 01-.787.316 5.591 5.591 0 01-3.281 2.497h-.001z" fill="#F4A593"/><path d="M137.932 185.957a.211.211 0 01-.06-.008c.069-.02.14-.037.21-.05a.221.221 0 01-.15.058zm1.672-.262a.224.224 0 01-.1-.025 1.126 1.126 0 00-.529-.133h-.012a1.2 1.2 0 00-.493.114 1.205 1.205 0 01.103-.504c.123-.033.257-.052.402-.053h.002c.227 0 .477.052.729.182a.22.22 0 01.095.299.22.22 0 01-.197.12z" fill="#F18D7D"/><path d="M138.982 184.652c.08-.052.174-.093.276-.123a.69.69 0 01-.276.123z" fill="#FBE0DD"/><path d="M144.514 201.112l-3.396-1.422a12.165 12.165 0 01-.218-.179c.358-.385.664-.823.903-1.31.415-.846.625-1.836.548-2.939l-.014-.214c1.704-.34 3.253-.526 4.648-.526.842 0 1.627.068 2.357.21.4 1.065.939 1.618.939 1.618l-5.767 4.762z" fill="#8B76B3"/><path d="M171.269 213.531l-20.357-16.215s-.951-.978-1.265-2.838c-.4-2.37-2.354-3.557-2.354-3.557-.47-1.387-.749-2.83-1.188-4.228-.045-.145-.099-.299-.219-.393-.134-.104-.322-.107-.49-.082-.978.152-1.521 1.021-1.541 1.95-.006.304.024.605.072.904l-2.66-3.221a1.231 1.231 0 00-1.729-.179 1.206 1.206 0 00-.431.829c-.009.114.001.227.023.34a1.688 1.688 0 00-1.581.833c-.799 1.373-.523 3.293.105 5.12 1.045 3.032 3.079 5.625 5.688 7.486l1.481 1.055 15.95 21.71a7.112 7.112 0 0010.136 1.279 7.059 7.059 0 002.351-3.459l-1.267-6.563a7.28 7.28 0 00-.724-.771z" fill="#FAC8A7"/><path d="M139.55 225.015c.873 4.389-1.974 8.653-6.356 9.525-4.384.874-8.643-1.976-9.516-6.363-.871-4.389 1.975-8.653 6.358-9.527 4.384-.872 8.642 1.977 9.514 6.365z" fill="#FEFEFE"/><path d="M139.551 225.015l-.434.086c.1.506.149 1.008.149 1.502 0 3.578-2.519 6.779-6.157 7.503a7.655 7.655 0 01-9.144-7.52c0-3.576 2.519-6.778 6.158-7.502a7.654 7.654 0 018.994 6.017l.434-.086.434-.086a8.538 8.538 0 00-8.36-6.879c-.552 0-1.113.055-1.674.167-4.061.808-6.871 4.376-6.871 8.369 0 .553.055 1.114.167 1.676a8.538 8.538 0 008.36 6.878c.552 0 1.112-.054 1.674-.166 4.06-.809 6.869-4.376 6.869-8.371 0-.551-.053-1.112-.165-1.674l-.434.086z" fill="#D4D1D1"/><path d="M135.204 228.808l-.173.26a.493.493 0 01-.682.135l-6.185-4.137a.495.495 0 01-.136-.682l.174-.26a.49.49 0 01.681-.135l6.185 4.137c.225.15.286.456.136.682z" fill="#E84159"/><path d="M129.406 230.188l-.26-.174a.492.492 0 01-.135-.682l4.132-6.193a.494.494 0 01.682-.135l.259.173c.225.15.285.458.135.682l-4.132 6.193a.493.493 0 01-.681.136z" fill="#E84159"/><path d="M161.797 220.584c.871 4.388-1.975 8.653-6.358 9.525-4.382.874-8.642-1.975-9.514-6.364-.871-4.388 1.974-8.653 6.358-9.525 4.382-.873 8.642 1.977 9.514 6.364z" fill="#FEFEFE"/><path d="M161.798 220.584l-.434.087c.1.504.149 1.008.149 1.502 0 3.578-2.52 6.778-6.159 7.502a7.629 7.629 0 01-1.5.149 7.653 7.653 0 01-7.642-7.668c0-3.577 2.518-6.778 6.158-7.502a7.715 7.715 0 011.501-.149 7.655 7.655 0 017.493 6.166l.434-.087.434-.086a8.539 8.539 0 00-10.035-6.713c-4.06.81-6.87 4.377-6.87 8.371 0 .553.054 1.114.166 1.676a8.538 8.538 0 0010.035 6.712c4.059-.81 6.869-4.376 6.869-8.371a8.56 8.56 0 00-.165-1.675l-.434.086z" fill="#D4D1D1"/><path d="M158.35 220.297a2.224 2.224 0 00-.349-.867 2.408 2.408 0 00-2.449-1.012 2.384 2.384 0 00-1.884 1.967 2.378 2.378 0 00-2.493-1.094c-1.224.244-2.006 1.349-1.845 2.587.152 1.171 1.134 1.932 2.079 2.499 1.147.689 2.3 1.385 3.479 2.015.095.052 2.125-2.761 2.319-3.026.642-.879 1.338-1.921 1.143-3.068v-.001z" fill="#65A2EF"/><path fill-rule="evenodd" clip-rule="evenodd" d="M646.932 169.814l9.347 16.792a3.643 3.643 0 004.95 1.409l16.772-9.361 2.431.693c11.651 3.315 23.824-3.479 27.136-15.144l5.592-19.704c3.311-11.664-3.473-23.851-15.126-27.167l-37.029-10.534c-11.65-3.314-23.822 3.478-27.133 15.142l-5.594 19.704c-3.312 11.666 3.476 23.85 15.126 27.167l3.528 1.003z" fill="#2C2F3D"/><path d="M631.776 142.641l5.594-19.703c2.766-9.749 12.903-15.405 22.639-12.635l37.03 10.535c9.737 2.77 15.386 12.918 12.619 22.667l-5.592 19.703c-2.766 9.747-12.903 15.405-22.641 12.635l-3.881-1.105-18.088 10.095-10.082-18.11-4.977-1.416c-9.738-2.769-15.388-12.918-12.621-22.666z" fill="#C3B2D5"/><path d="M631.776 142.641l5.594-19.703c2.766-9.749 12.903-15.405 22.639-12.635l37.03 10.535a18.238 18.238 0 018.738 5.513 18.289 18.289 0 01.717 12.084l-5.593 19.704c-2.766 9.747-12.902 15.405-22.64 12.634l-3.881-1.104-17.828 9.949-7.178-12.895-4.977-1.416c-9.738-2.769-15.388-12.918-12.621-22.666z" fill="#fff"/><path fill-rule="evenodd" clip-rule="evenodd" d="M647.243 139.608a6.333 6.333 0 004.633 5.131 6.33 6.33 0 007.864-7.123 6.336 6.336 0 00-4.634-5.128 6.313 6.313 0 00-2.61-.131 6.337 6.337 0 00-5.253 7.251zm34.656 10.628a6.334 6.334 0 004.631 5.129 6.335 6.335 0 007.734-4.506 6.304 6.304 0 00.129-2.615 6.336 6.336 0 00-4.631-5.13 6.33 6.33 0 00-7.863 7.122zm-17.539-5.377a6.334 6.334 0 004.631 5.128c.851.226 1.74.269 2.611.131a6.335 6.335 0 005.254-7.253 6.336 6.336 0 00-4.633-5.13 6.33 6.33 0 00-7.863 7.124zm-14.083-5.715c-.001-.006-.003-.012-.003-.019a3.256 3.256 0 012.705-3.732 3.255 3.255 0 013.728 2.707 3.254 3.254 0 01-2.703 3.733 3.257 3.257 0 01-3.727-2.689zm34.653 10.61a3.254 3.254 0 012.703-3.734 3.22 3.22 0 011.343.065 3.26 3.26 0 012.321 3.986 3.266 3.266 0 01-2.639 2.391 3.258 3.258 0 01-3.728-2.708zm-17.539-5.379a3.256 3.256 0 116.432-1.028 3.256 3.256 0 01-2.702 3.734c-.45.072-.904.053-1.345-.065a3.26 3.26 0 01-2.385-2.641z" fill="#2C2F3D"/><path d="M167.469 326.387L92.52 339.442c-7.71 1.343-12.87 8.688-11.53 16.405 1.342 7.717 8.677 12.885 16.387 11.544l61.767-10.76 13.181-2.297c7.71-1.342 12.871-8.686 11.529-16.405-1.34-7.717-8.677-12.885-16.385-11.542z" fill="#65A2EF"/><path d="M111.929 355.644l46.934-8.175a.545.545 0 00-.186-1.071l-46.934 8.176a.542.542 0 00-.442.628.541.541 0 00.628.442zm-16.282-5.458l44.981-7.834a.544.544 0 00-.186-1.072l-44.981 7.836a.542.542 0 10.186 1.07zm50.589-8.811l17.477-3.045a.543.543 0 00-.188-1.072l-17.475 3.045a.544.544 0 00.186 1.072z" fill="#FEFEFE"/><path d="M213.624 283.337l-102.983 17.777c-10.591 1.828-17.698 11.908-15.871 22.51 1.826 10.605 11.894 17.719 22.485 15.89l84.87-14.651 13.511 8.639-1.835-10.654 6.436-1.111c10.593-1.829 17.698-11.908 15.871-22.512-1.826-10.602-11.892-17.717-22.484-15.888z" fill="#FAB748"/><path d="M128.675 308.577l73.793-12.739a.543.543 0 10-.185-1.072l-73.791 12.739a.545.545 0 00.183 1.072zm2.985 17.335l62.344-10.763a.543.543 0 00-.183-1.072l-62.346 10.764a.543.543 0 10.185 1.071zm-19.733-4.953l63.703-10.997a.544.544 0 00-.184-1.071l-63.702 10.996a.544.544 0 00.183 1.072zm69.358-11.974l22.768-3.93a.544.544 0 00-.184-1.072l-22.769 3.931a.543.543 0 10.185 1.071z" fill="#FEFEFE"/><path d="M27.09 326.524a6.393 6.393 0 01-6.39 6.397 6.394 6.394 0 01-6.391-6.397c0-3.535 2.86-6.4 6.39-6.4s6.39 2.865 6.39 6.4z" fill="#BAD5F5"/><path fill-rule="evenodd" clip-rule="evenodd" d="M563.384 328.917c-.146-.201-1.487-.697-2.265-1.177-.693-.428-1.397-1.061-1.875-1.539-.974-.975-2.14-2.412-2.536-4.291-.833-3.959-.878-8.37.048-12.293.675-2.857 3.993-6.081 6.941-6.72 3.857-.836 8.53-.913 12.501-.399 2.292.296 3.52.52 5.168 1.65 1.317.902 2.514 2.055 3.36 3.472 1.626 2.724 1.749 8.311 1.293 11.849-.297 2.301-.547 3.575-1.653 5.194-.837 1.224-2.166 2.498-3.535 3.296-1.674.975-3.286 1.168-5.439 1.406-3.202.353-4.177.066-6.517.197l-3.378 3.554c-.874.661-1.935.077-2.088-.822-.122-.728-.025-2.537-.025-3.377zm-17.192-11.912c0 3.718.229 5.78 1.425 9.216.581 1.67 1.111 2.626 1.924 4.128.188.349.362.581.557.908.801 1.342 2.316 3.158 3.384 4.227a24.285 24.285 0 003.243 2.711c1.465 1.034 2.171 1.442 3.802 2.246 2.31 1.139 6.319 2.342 9.754 2.342h.133c2.753 0 4.071-.025 6.851-.721.84-.21 1.535-.432 2.319-.706 3.199-1.116 5.163-2.499 7.668-4.432 5.002-3.859 8.874-11.687 8.874-18.258 0-4.509-.531-7.757-2.307-11.458-2.701-5.632-6.516-9.288-12.03-12.075-2.636-1.333-6.761-2.343-9.752-2.343-3.76 0-5.81.209-9.303 1.427-.697.243-1.511.565-2.142.883l-2.888 1.6c-4.096 2.45-7.08 6.29-9.205 10.508-1.337 2.655-2.307 6.792-2.307 9.797z" fill="#7360F2"/><path fill-rule="evenodd" clip-rule="evenodd" d="M571.831 312.209c.787-.279 1.747.178 2.209.639 1.637 1.633.166 3.371-.118 1.794-.481-2.669-2.623-.904-2.091-2.433zm-8.468-.086c-.332-1.144.859-2.243 1.386-2.607 1.35-.93 1.769-.411 2.511.556.376.491 1.434 1.826 1.515 2.474.232 1.854-3.21 1.014.16 5.219.552.689 1.328 1.256 2.367 1.735 1.9.873 1.608-.292 2.531-.888.915-.59 2.206.639 2.775 1.041 1.061.745 1.858 1.213 1.388 2.242-.338.735-1.263 1.751-2.111 1.998-1.2.349-4.789-1.889-5.577-2.426-1.656-1.129-3.012-2.383-4.131-3.966-.857-1.213-2.317-3.668-2.814-5.378zm7.943-1.333c-.611-.587.486-1.157 2.595-.143 2.152 1.034 3.328 3.956 2.644 5.208l-.528-.024c-.23-.455-.208-1.553-.497-2.316-.995-2.626-3.889-2.412-4.214-2.725zm6.075 2.621c-.507-1.511-1.347-2.429-2.504-3.255a5.69 5.69 0 00-1.201-.65c-1.075-.441-2.293-.347-3.118-.671-.137-.913.555-.758 1.411-.655.662.081 1.23.225 1.804.445 2.797 1.074 4.512 3.473 4.811 6.525.08.804.369 1.62-.596 1.451-.27-.467-.313-2.317-.607-3.191v.001zm-12.803 18.675c.527.204.984-.649 1.734-1.381l3.183-3.256c.795-.847.649-.516 2.736-.581 1.808-.056 4.088-.245 5.792-.647 1.644-.388 3.061-1.763 3.823-2.714 1.978-2.469 1.888-7.916 1.474-11.069-.237-1.808-.543-3.416-1.879-4.655-1.292-1.199-1.981-2.03-4.149-2.392-4.052-.68-7.966-.679-12.019-.044-1.068.169-1.583.312-2.428.797-.756.435-1.205.9-1.769 1.452-1.338 1.31-1.689 2.138-2.033 4.489-.432 2.957-.568 8.862 1.257 11.2.859 1.1 2.018 2.31 3.692 2.849.761.244.495.49.495 2.687 0 .791-.156 2.685.092 3.265h-.001z" fill="#7360F2"/><path fill-rule="evenodd" clip-rule="evenodd" d="M564.581 332.086c-.247-.58-.091-2.474-.091-3.266 0-2.196.266-2.443-.495-2.687-1.674-.538-2.833-1.749-3.692-2.848-1.825-2.339-1.69-8.243-1.257-11.2.344-2.351.694-3.18 2.032-4.489.564-.552 1.014-1.018 1.769-1.452.846-.485 1.36-.629 2.429-.797 4.052-.635 7.967-.636 12.019.043 2.168.363 2.857 1.194 4.149 2.392 1.335 1.239 1.641 2.848 1.879 4.655.414 3.154.504 8.601-1.474 11.07-.762.951-2.179 2.325-3.823 2.714-1.704.402-3.984.591-5.792.647-2.087.065-1.941-.266-2.736.58l-3.183 3.257c-.75.732-1.207 1.585-1.734 1.381zm-1.196-3.169c0 .84-.097 2.649.025 3.377.153.898 1.214 1.483 2.089.821l3.378-3.554c2.339-.13 3.314.157 6.516-.197 2.153-.237 3.765-.43 5.439-1.406 1.369-.798 2.698-2.071 3.535-3.296 1.106-1.618 1.357-2.893 1.654-5.193.456-3.539.332-9.125-1.294-11.85-.846-1.416-2.043-2.569-3.36-3.472-1.648-1.129-2.876-1.354-5.168-1.65-3.971-.514-8.644-.437-12.501.4-2.948.639-6.266 3.863-6.941 6.719-.926 3.924-.881 8.335-.048 12.293.396 1.879 1.562 3.317 2.536 4.291.478.479 1.182 1.111 1.875 1.539.778.48 2.12.977 2.265 1.178z" fill="#FEFEFE"/><path fill-rule="evenodd" clip-rule="evenodd" d="M563.364 312.124c.496 1.71 1.956 4.164 2.813 5.377 1.12 1.584 2.476 2.837 4.131 3.967.789.537 4.378 2.775 5.577 2.425.849-.246 1.774-1.262 2.111-1.998.47-1.029-.327-1.497-1.388-2.242-.569-.401-1.86-1.63-2.774-1.041-.924.596-.632 1.761-2.532.889-1.039-.479-1.814-1.046-2.367-1.735-3.37-4.205.072-3.365-.16-5.22-.081-.648-1.139-1.982-1.515-2.474-.741-.966-1.161-1.486-2.51-.556-.528.364-1.719 1.464-1.387 2.608h.001zm7.195-3.288c.825.323 2.043.229 3.118.67.461.189.828.385 1.201.651 1.157.826 1.997 1.744 2.504 3.254.294.874.337 2.724.607 3.191.965.169.676-.647.596-1.451-.299-3.052-2.014-5.452-4.811-6.525a7.356 7.356 0 00-1.804-.445c-.856-.103-1.548-.258-1.411.655z" fill="#FEFEFE"/><path fill-rule="evenodd" clip-rule="evenodd" d="M576.018 315.832l.528.024c.684-1.253-.492-4.174-2.644-5.208-2.109-1.014-3.206-.444-2.595.143.326.313 3.219.099 4.214 2.725.29.763.267 1.861.497 2.316z" fill="#FEFEFE"/><path fill-rule="evenodd" clip-rule="evenodd" d="M573.921 314.643c.284 1.577 1.756-.161.119-1.794-.463-.462-1.423-.918-2.21-.639-.531 1.529 1.611-.236 2.092 2.433h-.001z" fill="#FEFEFE"/><path fill-rule="evenodd" clip-rule="evenodd" d="M454.929 230.689c0 4.864.3 7.561 1.865 12.058.76 2.185 1.455 3.434 2.518 5.4.246.456.473.76.728 1.188 1.046 1.756 3.03 4.132 4.428 5.53 1.324 1.327 2.714 2.468 4.242 3.547 1.917 1.353 2.841 1.887 4.975 2.939 3.022 1.49 8.267 3.064 12.763 3.064h.172c3.602-.001 5.327-.032 8.965-.944a33.416 33.416 0 003.034-.922c4.186-1.461 6.754-3.27 10.031-5.799 6.545-5.05 11.612-15.291 11.612-23.891 0-5.897-.696-10.147-3.019-14.99-3.533-7.369-8.525-12.151-15.738-15.798-3.45-1.744-8.848-3.065-12.762-3.065-4.918 0-7.601.272-12.171 1.866-.911.318-1.975.74-2.801 1.156l-3.78 2.094c-5.358 3.204-9.263 8.228-12.043 13.747-1.749 3.474-3.019 8.888-3.019 12.82z" fill="#25D366"/><path fill-rule="evenodd" clip-rule="evenodd" d="M471.515 231.838c0-4.799 1.674-8.621 4.817-11.785 1.982-1.994 4.806-3.579 7.636-4.236 5.314-1.234 11.073.267 14.886 4.108 4.936 4.972 6.39 11.939 3.54 18.299-.353.789-.881 1.775-1.382 2.449-1.874 2.527-3.29 3.909-6.23 5.388-4.105 2.066-9.803 2.258-13.911.173-.788-.401-.774-.562-1.744-.264-.623.193-7.095 1.95-7.74 1.966l1.659-6.006c.101-.387.174-.569.282-.994.054-.205.241-.776.279-.999.124-.727-2.092-3.397-2.092-8.099zm7.911-3.832c0-1.719 1.324-3.833 2.17-3.833 1.758 0 1.645-.177 2.042.766.28.662 1.276 2.872 1.276 3.322 0 .811-1.42 1.627-1.324 2.235.063.388 1.208 1.864 1.489 2.199.869 1.035 3.536 2.977 4.556 2.977.753 0 1.494-2.046 2.297-2.046.48 0 2.617 1.12 3.282 1.442.489.237.682.275.626.935-.183 2.186-1.97 3.245-3.27 3.245-2.182 0-3.534-.341-5.61-1.538a15.961 15.961 0 01-1.682-1.127c-.648-.485-.968-.825-1.562-1.375l-.684-.721c-1.451-1.457-3.606-4.365-3.606-6.481zm-5.231 2.81c0 6.46 2.337 7.542 2.269 8.658-.027.437-1.191 4.062-1.248 4.756l4.673-1.214c.903-.175 1.678.916 4.257 1.599 4.596 1.217 9.534-.008 12.795-3.291 1.294-1.304 1.916-2.012 2.774-3.736 1.913-3.838 1.853-7.997.128-11.881-.426-.96-1.996-3.185-2.776-3.865l-.894-.765a8.778 8.778 0 00-.946-.714c-5.089-3.327-11.227-3.062-16.004.668-.358.281-.511.484-.873.787-.54.453-1.798 2.009-2.19 2.662-.225.375-.38.736-.561 1.099-.658 1.313-1.405 3.291-1.405 5.237h.001z" fill="#fff"/><path fill-rule="evenodd" clip-rule="evenodd" d="M471.181 65.138c-.166-1.931-.199-11.119.286-12.496.53-1.506 1.703-2.778 3.105-3.366 1.633-.686 4.099-.475 6.031-.475h12.824c2.336 0 3.737-.134 5.424 1.083 3.168 2.285 2.353 6.346 2.353 10.453 0 1.744.188 4.646-.32 6.127-1.53 4.468-5.844 3.847-9.129 3.847h-12.824c-2.417 0-3.645.138-5.421-1.085-1.041-.717-2.172-2.246-2.329-4.087zm-13.548-6.475c0 4.25.262 6.607 1.63 10.537.664 1.91 1.27 3.001 2.199 4.72.216.398.414.664.637 1.037.915 1.534 2.649 3.61 3.869 4.834a27.918 27.918 0 003.708 3.099c1.675 1.183 2.483 1.648 4.347 2.568 2.641 1.303 7.224 2.677 11.153 2.677h.151c3.147 0 4.655-.028 7.833-.824.96-.24 1.755-.494 2.651-.807 3.659-1.276 5.903-2.857 8.767-5.066 5.72-4.414 10.147-13.364 10.147-20.878 0-5.154-.607-8.866-2.638-13.1-3.088-6.44-7.451-10.618-13.753-13.804-3.015-1.524-7.732-2.68-11.152-2.68-4.298 0-6.643.24-10.635 1.632-.796.278-1.728.646-2.448 1.01l-3.303 1.83c-4.683 2.8-8.095 7.189-10.525 12.013-1.528 3.035-2.638 7.766-2.638 11.202z" fill="#F02A2A"/><path fill-rule="evenodd" clip-rule="evenodd" d="M482.477 64.056c-.199.134.285.161-.312.092v-9.184c.64-.076.052-.03.312.092l7.594 4.462-7.594 4.538zm-11.297 1.082c.158 1.842 1.289 3.37 2.33 4.088 1.775 1.223 3.004 1.085 5.42 1.085h12.825c3.285 0 7.599.62 9.129-3.848.508-1.48.319-4.382.319-6.126 0-4.107.816-8.169-2.352-10.454-1.687-1.217-3.088-1.082-5.424-1.082h-12.824c-1.932 0-4.398-.212-6.032.474-1.401.589-2.574 1.86-3.104 3.367-.485 1.377-.452 10.564-.287 12.496z" fill="#FFFEFE"/><path fill-rule="evenodd" clip-rule="evenodd" d="M482.475 64.055l7.595-4.537-7.595-4.462c-.246.146-.215-.352-.2 1.04l.014 7.703c.116.348-.064.04.186.256z" fill="#F02A2A"/><path fill-rule="evenodd" clip-rule="evenodd" d="M482.476 64.056c-.251-.216-.071.091-.187-.257l-.014-7.703c-.014-1.391-.046-.893.201-1.04-.26-.122.328-.168-.312-.092v9.185c.597.069.114.042.312-.093z" fill="#FF7F7F"/><path fill-rule="evenodd" clip-rule="evenodd" d="M336.323 21.057c2.227-.396 2.7.928 2.487 2.95-.604 5.723-2.799 19.562-3.955 24.923-1.023 4.749-3.547 3.87-6.546 1.685-1.342-.976-9.75-6.429-10.311-7.102-1.561-1.871.634-3.054 1.74-4.278 1.17-1.295 1.373-1.239 2.228-2.128 1.514-1.577 3.903-3.556 5.182-4.884l2.069-2.149c.655-.852.312-1.664-.876-1.016-1.108.605-2.458 1.568-3.565 2.292l-10.321 6.95c-3.344 2.254-4.658 1.948-8.78.67-3.374-1.048-7.475-2.14-2.081-4.462 4.435-1.911 28.468-12.694 32.729-13.451zm-48.432 12.707c0 5.183.319 8.057 1.987 12.85.81 2.328 1.55 3.66 2.682 5.755.263.485.506.81.777 1.265 1.116 1.872 3.229 4.404 4.72 5.894 1.41 1.414 2.892 2.63 4.52 3.78 2.043 1.443 3.028 2.011 5.302 3.132 3.221 1.588 8.809 3.266 13.601 3.266h.184c3.839-.002 5.676-.036 9.554-1.006a35.928 35.928 0 003.232-.983c4.462-1.558 7.198-3.484 10.69-6.18 6.977-5.383 12.375-16.296 12.375-25.46 0-6.285-.741-10.813-3.216-15.974-3.767-7.853-9.086-12.95-16.773-16.836C333.849 1.41 328.098 0 323.926 0c-5.241 0-8.1.29-12.97 1.989-.97.34-2.106.788-2.986 1.233l-4.026 2.23c-5.712 3.414-9.873 8.769-12.835 14.65-1.864 3.702-3.218 9.473-3.218 13.662z" fill="#28A7E8"/><path fill-rule="evenodd" clip-rule="evenodd" d="M336.323 21.057c-4.262.758-28.295 11.54-32.729 13.451-5.395 2.323-1.294 3.415 2.08 4.462 4.122 1.278 5.437 1.585 8.781-.67l10.32-6.951c1.108-.724 2.457-1.686 3.566-2.292 1.188-.648 1.531.165.875 1.016l-2.068 2.15c-1.28 1.328-3.669 3.306-5.183 4.883-.854.89-1.058.833-2.228 2.128-1.106 1.224-3.301 2.407-1.74 4.279.562.673 8.969 6.126 10.311 7.101 2.999 2.185 5.524 3.064 6.547-1.685 1.155-5.36 3.35-19.2 3.955-24.922.212-2.023-.261-3.347-2.487-2.95z" fill="#FCFEFF"/><path fill-rule="evenodd" clip-rule="evenodd" d="M248.559 202.955c.809.145 1.341-.746 2.079-1.707 1.105-1.441 2.003-3.249 2.7-4.968.514-1.272.863-1.047 2.797-1.047 3.871 0 5.728-.561 4.365 2.291-.419.878-1.003 1.644-1.515 2.372-.548.781-1.114 1.487-1.653 2.226-1.957 2.688-1.877 2.482.303 4.582.633.61 3.24 3.116 3.335 4.331.103 1.331-1.326 1.31-2.508 1.31-3.159 0-4.364.378-6.192-1.629-1.71-1.878-3.192-3.974-3.836-1.193-.271 1.175-.051 2.388-1.236 2.656-1.913.435-4.917-.301-6.433-1.014-3.188-1.503-5.673-5.087-7.363-8.069-.911-1.605-1.801-3.25-2.612-5.055-1.448-3.222-1.371-2.893 3.134-2.825 3.399.051 2.15.369 3.993 3.656.392.698 2.596 4.69 3.567 4.167.75-.403.719-5.417.256-6.345-.332-.666-.796-.587-1.52-.887-.021-1.358 1.962-1.318 3.209-1.319 1.018-.001 3.466-.1 4.183.401 1.469 1.027-.258 6.362.947 8.067v-.001zm-27.923-1.156c0 3.696.228 5.748 1.418 9.165.578 1.66 1.104 2.611 1.913 4.104.187.347.36.578.554.903.796 1.335 2.303 3.14 3.365 4.205a24.258 24.258 0 003.224 2.694c1.458 1.029 2.16 1.435 3.782 2.235 2.298 1.133 6.284 2.329 9.7 2.329h.132c2.738 0 4.049-.025 6.814-.717a24.992 24.992 0 002.306-.702c3.182-1.11 5.134-2.485 7.625-4.407 4.975-3.839 8.826-11.624 8.826-18.158 0-4.484-.529-7.714-2.294-11.396-2.686-5.6-6.48-9.235-11.963-12.007-2.622-1.326-6.725-2.331-9.699-2.331-3.739 0-5.779.208-9.252 1.419-.693.242-1.502.562-2.13.878l-2.871 1.593c-4.074 2.435-7.043 6.254-9.156 10.448-1.329 2.641-2.294 6.756-2.294 9.744v.001z" fill="#2787F5"/><path fill-rule="evenodd" clip-rule="evenodd" d="M260.97 211.036c-.095-1.216-2.702-3.721-3.335-4.332-2.18-2.1-2.26-1.894-.303-4.582.539-.739 1.105-1.445 1.653-2.226.512-.728 1.096-1.493 1.515-2.371 1.363-2.853-.494-2.292-4.365-2.292-1.934 0-2.283-.224-2.797 1.047-.697 1.719-1.595 3.527-2.7 4.968-.738.962-1.27 1.852-2.079 1.708-1.205-1.705.523-7.04-.947-8.067-.716-.501-3.164-.402-4.183-.401-1.247.001-3.23-.039-3.209 1.319.725.3 1.188.221 1.521.887.462.928.493 5.942-.257 6.345-.97.523-3.175-3.469-3.567-4.167-1.843-3.287-.594-3.605-3.993-3.656-4.505-.068-4.581-.396-3.134 2.825.811 1.805 1.701 3.45 2.612 5.055 1.691 2.982 4.175 6.566 7.363 8.069 1.516.713 4.52 1.449 6.433 1.014 1.185-.268.965-1.481 1.236-2.656.644-2.781 2.126-.685 3.837 1.193 1.827 2.007 3.032 1.629 6.192 1.629 1.181 0 2.61.021 2.507-1.31v.001z" fill="#FEFEFF"/><path fill-rule="evenodd" clip-rule="evenodd" d="M65.573 237h1.338c3.46.087 6.858.857 9.973 2.354.742.356 1.314.68 2.018 1.063l2.794 1.88c.288.238.572.407.842.651l2.388 2.286c1.012 1.002 2.578 3.195 3.311 4.445a25.438 25.438 0 012.687 6.566c.452 1.816.697 3.729.734 5.651v1.032c-.069 3.596-.862 7.175-2.385 10.194-2.012 3.987-4.772 7.655-8.527 10.169-1.67 1.119-2.107 1.365-3.896 2.268-3.358 1.699-7.035 2.389-11.43 2.389-5.271 0-11.851-2.527-15.63-6.046l-1.59-1.492c-1.248-1.249-1.252-1.344-2.23-2.543a10.267 10.267 0 01-.628-.865c-3.192-4.824-4.572-8.917-4.572-15.324 0-1.998.335-3.791.72-5.448.329-1.41 1.379-4.359 2.144-5.617.203-.335.33-.624.534-.958 2.046-3.371 3.523-4.956 6.51-7.412 1.11-.913 3.384-2.328 4.76-2.897l2.17-.911a20.667 20.667 0 012.37-.714 27.759 27.759 0 015.595-.721z" fill="#FC2C38"/><path fill-rule="evenodd" clip-rule="evenodd" d="M52.897 261.578c0 2.513.136 4.274 1.291 6.568.47.931 1.17 2.129 1.865 2.91l1.14 1.146c.162.141.242.251.4.398 1.787 1.675 5.43 3.207 7.927 3.207 3.3 0 5.245-.4 7.92-2.02.482-.291 1.31-1.064 1.92-1.064.984 0 2.413 1.577.712 2.803-5.194 3.743-11.98 4.365-17.64 1.209-5.795-3.23-9.282-9.768-8.324-16.556.604-4.27 2.82-8.19 6.125-10.685 3.022-2.282 6.13-3.332 9.992-3.536l2.974.294a15.817 15.817 0 016.003 2.349c1.063.692 2.586 1.95 3.339 2.926.319.415.621.781.95 1.236 2.477 3.423 5.193 12.447 1.095 15.641-2.4 1.869-5.29 1.861-7.599.028-.233-.186-.381-.27-.58-.514-.25-.306-.186-.341-.526-.569-1.08.725-1.228 1.384-3.365 2.105-2.79.941-6.097-.077-7.882-2.287-3.654-4.526-1.121-10.652 3.612-11.94 1.956-.532 3.944-.3 5.643.684.26.15.585.409.898.493.166-.715.357-1.162 1.01-1.381.707-.236 1.289.053 1.651.508.835 1.048-.07 7.669.402 9.151.49 1.537 1.63 2.17 3.2 2.17 1.254 0 2.683-1.43 2.683-2.686 0-2.455-.228-4.671-1.134-6.926-.328-.815-.684-1.46-1.11-2.173-.776-1.302-1.932-2.61-3.151-3.511-3.908-2.893-9.44-3.518-13.788-1.321-.724.365-1.363.705-2.003 1.179-.293.216-.634.447-.904.687l-1.145 1.143c-.14.161-.25.241-.397.397-1.673 1.79-3.203 5.438-3.203 7.937zm8.945.498v.597c0 2.082 2.095 4.179 4.174 4.179h.597c2.079 0 4.174-2.097 4.174-4.179v-.597c0-2.082-2.095-4.179-4.174-4.179h-.597c-2.08 0-4.174 2.097-4.174 4.179z" fill="#fff"/></svg>