<svg xmlns="http://www.w3.org/2000/svg"><symbol viewBox="0 0 48 46" id="check"><path d="M18.012 26.4L0 18.986l18.012 26.4L47.13 0 18.01 26.4z" fill="#65A2EF"/></symbol><symbol viewBox="0 0 56 34" id="VK"><path d="M9.584 0H0c.455 21.237 11.368 34 30.5 34h1.085V21.85c7.03.68 12.347 5.683 14.481 12.15H56c-2.728-9.666-9.899-15.009-14.376-17.051C46.101 14.43 52.397 8.304 53.901 0h-9.024c-1.959 6.739-7.765 12.865-13.292 13.443V0h-9.024v23.552C16.964 22.19 9.899 15.588 9.584 0z" fill="#fff"/></symbol><symbol viewBox="0 0 46 34" id="discord"><path d="M38.94 2.82A38.74 38.74 0 0029.579.006a.146.146 0 00-.151.068 25.559 25.559 0 00-1.166 2.323 36.103 36.103 0 00-10.516 0A23.203 23.203 0 0016.562.074a.147.147 0 00-.151-.072 38.712 38.712 0 00-9.363 2.816.134.134 0 00-.061.05C1.022 11.51-.613 19.939.19 28.26a.15.15 0 00.059.103 38.617 38.617 0 0011.486 5.629.151.151 0 00.161-.05 26.059 26.059 0 002.35-3.707.139.139 0 00-.079-.196 25.466 25.466 0 01-3.587-1.659.142.142 0 01-.073-.113.142.142 0 01.057-.122c.242-.176.483-.36.713-.543a.144.144 0 01.15-.019c7.526 3.332 15.678 3.332 23.116 0a.146.146 0 01.151.017c.23.185.47.369.713.544a.14.14 0 01-.011.237 23.76 23.76 0 01-3.59 1.656.144.144 0 00-.085.082.14.14 0 00.006.116 29.573 29.573 0 002.348 3.706.15.15 0 00.161.053 38.49 38.49 0 0011.504-5.63.143.143 0 00.061-.102C46.76 18.64 44.196 10.28 39 2.872a.115.115 0 00-.06-.052zM15.373 23.192c-2.265 0-4.134-2.019-4.134-4.495 0-2.478 1.832-4.495 4.134-4.495 2.32 0 4.17 2.034 4.134 4.495 0 2.478-1.832 4.495-4.134 4.495zm15.285 0c-2.267 0-4.134-2.019-4.134-4.495 0-2.478 1.83-4.495 4.134-4.495 2.32 0 4.17 2.034 4.134 4.495 0 2.478-1.813 4.495-4.134 4.495z" fill="#fff"/></symbol><symbol viewBox="0 0 16 34" id="facebook"><path d="M4.084 34V18.046H0v-5.744h4.084V7.396C4.084 3.54 6.497 0 12.056 0c2.251 0 3.916.223 3.916.223l-.131 5.364s-1.698-.017-3.55-.017c-2.005 0-2.326.954-2.326 2.538v4.194H16l-.263 5.744H9.965V34h-5.88z" fill="#fff"/></symbol><symbol viewBox="0 0 34 34" id="instagram"><path d="M16.995 11.33A5.681 5.681 0 0011.326 17a5.681 5.681 0 005.67 5.67A5.681 5.681 0 0022.663 17a5.681 5.681 0 00-5.669-5.67zM33.998 17c0-2.348.021-4.674-.11-7.017-.132-2.722-.753-5.138-2.743-7.128C29.15.86 26.739.244 24.017.112 21.669-.02 19.343.002 17 .002c-2.348 0-4.674-.022-7.017.11C7.26.244 4.845.865 2.855 2.855.86 4.85.244 7.26.112 9.983-.02 12.33.002 14.657.002 17s-.022 4.674.11 7.017c.132 2.722.753 5.138 2.743 7.128 1.994 1.995 4.406 2.611 7.128 2.743 2.347.132 4.673.11 7.017.11 2.347 0 4.674.022 7.017-.11 2.722-.132 5.137-.753 7.128-2.743 1.994-1.994 2.61-4.406 2.743-7.128.136-2.343.11-4.67.11-7.017zm-17.003 8.723A8.71 8.71 0 018.273 17a8.71 8.71 0 018.722-8.723A8.71 8.71 0 0125.718 17a8.71 8.71 0 01-8.723 8.723zm9.08-15.766a2.035 2.035 0 01-2.037-2.037c0-1.127.91-2.037 2.037-2.037A2.035 2.035 0 0127.958 8.7a2.034 2.034 0 01-1.883 1.257z" fill="#fff"/></symbol><symbol viewBox="0 0 19 34" id="odnoklassniki"><path d="M9.5 0C4.833 0 1.035 3.936 1.035 8.775s3.798 8.773 8.467 8.773c4.668 0 8.464-3.934 8.464-8.773C17.965 3.936 14.169 0 9.5 0zm0 5.141c1.933 0 3.504 1.631 3.504 3.634 0 2.002-1.571 3.632-3.503 3.632-1.933 0-3.506-1.63-3.506-3.632 0-2.003 1.573-3.634 3.506-3.634zM2.52 17.847A2.455 2.455 0 00.383 19.05c-.73 1.202-.38 2.789.776 3.545a15.58 15.58 0 004.915 2.11l-4.731 4.906a2.638 2.638 0 00.001 3.636A2.432 2.432 0 003.097 34a2.43 2.43 0 001.753-.753l4.649-4.82 4.652 4.82a2.417 2.417 0 003.506 0 2.636 2.636 0 000-3.635l-4.733-4.906a15.552 15.552 0 004.915-2.11c1.16-.756 1.51-2.345.78-3.545-.73-1.203-2.261-1.565-3.421-.808a10.429 10.429 0 01-11.397 0 2.406 2.406 0 00-1.28-.396z" fill="#fff"/></symbol><symbol viewBox="0 0 40 34" id="telegram"><path d="M37.263.22L1.879 13.812c-2.415.967-2.401 2.309-.443 2.907l9.084 2.824L31.54 6.33c.994-.602 1.902-.278 1.155.382l-17.03 15.313h-.004l.004.002-.626 9.329c.918 0 1.323-.42 1.838-.915l4.412-4.275 9.178 6.755c1.693.928 2.908.45 3.33-1.561L39.82 3.07c.617-2.463-.944-3.578-2.558-2.85z" fill="#fff"/></symbol><symbol viewBox="0 0 29 34" id="tiktok"><path d="M15.233.029C17.053 0 18.863.017 20.67 0c.11 2.169.876 4.378 2.434 5.911C24.66 7.483 26.86 8.201 29 8.445v5.705c-2.006-.067-4.021-.492-5.842-1.372-.793-.365-1.531-.836-2.254-1.317-.01 4.14.017 8.274-.026 12.397-.108 1.98-.75 3.951-1.88 5.583-1.82 2.717-4.978 4.489-8.22 4.544-1.99.116-3.977-.437-5.672-1.455C2.296 30.843.32 27.754.032 24.44a24.135 24.135 0 01-.017-2.108c.25-2.696 1.56-5.275 3.592-7.03 2.303-2.042 5.53-3.016 8.55-2.44.029 2.099-.054 4.195-.054 6.294-1.38-.455-2.993-.328-4.198.526a4.894 4.894 0 00-1.898 2.479c-.288.718-.205 1.516-.189 2.279.331 2.325 2.526 4.279 4.869 4.067 1.553-.017 3.041-.935 3.85-2.279.263-.47.556-.952.571-1.506.137-2.534.083-5.057.1-7.591.011-5.712-.017-11.407.026-17.1L15.233.03z" fill="#fff"/></symbol><symbol viewBox="0 0 34 34" id="twitch"><path fill-rule="evenodd" clip-rule="evenodd" d="M2.39 0L0 5.836v23.85h8.5V34h4.78l4.516-4.313h6.908L34 20.805V0H2.39zm28.422 19.284l-5.313 5.074H17l-4.516 4.313V24.36h-7.17V3.044h25.498v16.24zM25.499 8.882v8.87h-3.187v-8.87H25.5zm-8.499 0v8.87h-3.187v-8.87H17z" fill="#fff"/></symbol><symbol viewBox="0 0 42 34" id="twitter"><path d="M42 4.033a17.312 17.312 0 01-4.948 1.35A8.609 8.609 0 0040.84.635a17.24 17.24 0 01-5.471 2.081 8.651 8.651 0 00-10.36-1.7 8.598 8.598 0 00-3.787 4.033 8.55 8.55 0 00-.537 5.495 24.55 24.55 0 01-9.837-2.603 24.451 24.451 0 01-7.924-6.363A8.55 8.55 0 001.76 5.892c0 1.412.349 2.803 1.017 4.05a8.597 8.597 0 002.816 3.093 8.622 8.622 0 01-3.903-1.074v.11c0 1.982.688 3.902 1.948 5.436A8.626 8.626 0 008.6 20.485c-1.27.343-2.6.393-3.892.148a8.586 8.586 0 003.066 4.264 8.645 8.645 0 004.984 1.693 17.338 17.338 0 01-10.702 3.675c-.688 0-1.374-.04-2.057-.12A24.445 24.445 0 0013.207 34c15.852 0 24.518-13.074 24.518-24.413 0-.369-.01-.74-.026-1.11a17.478 17.478 0 004.297-4.438L42 4.033z" fill="#fff"/></symbol></svg>